<svg width="1080" height="541" viewBox="0 0 1080 541" fill="none" xmlns="http://www.w3.org/2000/svg">
    <path d="M1097 0L2196.85 405.75H-2.85229L1097 0Z" fill="url(#paint0_linear)"/>
    <g clip-path="url(#clip0)">
        <path d="M617.243 132.383L609.796 112.056C609.62 111.574 609.606 111.046 609.759 110.555C609.911 110.064 610.221 109.637 610.64 109.339L630.714 95.0867C630.884 94.9661 631.069 94.8687 631.265 94.797L652.977 86.8428L663.458 115.452L617.243 132.383Z" fill="#EEAC13"/>
        <path d="M635.655 128.134L639.43 119.994C639.56 119.715 639.743 119.464 639.969 119.255C640.196 119.047 640.461 118.885 640.75 118.779L681.652 103.795L688.102 121.401L639.686 139.138L635.655 128.134Z" fill="#8C410B"/>
        <path d="M722.659 86.2758L717.929 73.3628C717.65 72.6027 717.18 71.9277 716.563 71.4035C715.946 70.8793 715.204 70.5237 714.409 70.3714L704.869 68.5439C704.034 68.3841 703.172 68.454 702.374 68.7463L685.12 75.0674C684.251 75.3858 683.495 75.9542 682.949 76.7011L675.289 87.1712C674.833 87.794 674.538 88.5197 674.431 89.2838C674.323 90.0479 674.405 90.8268 674.671 91.5514L678.645 102.4L722.659 86.2758Z" fill="#EEAC13"/>
        <path d="M718.978 137.546C703.177 143.335 685.676 135.218 679.888 119.418C674.099 103.617 682.216 86.116 698.016 80.3275C713.817 74.5391 731.318 82.6555 737.106 98.456C742.895 114.257 734.778 131.758 718.978 137.546Z" fill="#EFE8E0"/>
        <path d="M697.209 78.126C703.303 75.8936 709.922 75.5183 716.229 77.0476C722.536 78.5769 728.248 81.9421 732.642 86.7176C737.036 91.4932 739.916 97.4645 740.917 103.877C741.917 110.289 740.994 116.854 738.264 122.741C735.533 128.628 731.119 133.574 725.577 136.952C720.036 140.33 713.618 141.99 707.134 141.72C700.65 141.451 694.391 139.265 689.15 135.438C683.908 131.612 679.919 126.317 677.686 120.223C674.703 112.051 675.083 103.03 678.743 95.1376C682.403 87.2456 689.044 81.1276 697.209 78.126ZM714.14 124.341C717.187 123.225 719.834 121.23 721.748 118.609C723.661 115.989 724.754 112.859 724.889 109.617C725.023 106.375 724.194 103.166 722.505 100.396C720.815 97.6251 718.343 95.4176 715.399 94.0525C712.455 92.6873 709.173 92.2257 705.967 92.726C702.761 93.2263 699.775 94.6662 697.387 96.8633C695 99.0605 693.317 101.916 692.552 105.07C691.788 108.223 691.975 111.533 693.091 114.58C694.592 118.662 697.651 121.983 701.597 123.813C705.543 125.643 710.054 125.833 714.14 124.341Z" fill="#544D4C"/>
        <path d="M639.752 166.57C628.813 170.578 616.697 164.958 612.689 154.02C608.682 143.081 614.301 130.965 625.24 126.957C636.179 122.95 648.295 128.569 652.302 139.508C656.31 150.446 650.691 162.563 639.752 166.57Z" fill="#EFE8E0"/>
        <path d="M624.433 124.757C628.786 123.162 633.514 122.894 638.018 123.986C642.523 125.079 646.603 127.482 649.742 130.893C652.881 134.305 654.938 138.57 655.653 143.15C656.367 147.73 655.708 152.419 653.758 156.624C651.807 160.83 648.654 164.362 644.696 166.775C640.738 169.188 636.154 170.374 631.522 170.181C626.891 169.989 622.42 168.427 618.676 165.694C614.932 162.961 612.083 159.179 610.488 154.826C608.358 148.989 608.629 142.545 611.243 136.908C613.858 131.271 618.601 126.901 624.433 124.757ZM635.72 155.567C637.461 154.929 638.974 153.789 640.067 152.291C641.161 150.794 641.785 149.006 641.862 147.153C641.939 145.3 641.465 143.467 640.5 141.883C639.535 140.3 638.122 139.039 636.44 138.259C634.758 137.479 632.882 137.215 631.05 137.501C629.218 137.787 627.512 138.61 626.147 139.865C624.783 141.121 623.821 142.753 623.384 144.555C622.948 146.357 623.055 148.248 623.693 149.989C624.55 152.322 626.298 154.219 628.553 155.265C630.808 156.31 633.385 156.419 635.72 155.567Z" fill="#544D4C"/>
        <path d="M709.303 111.137C708.087 111.583 706.741 110.958 706.296 109.743C705.851 108.527 706.475 107.181 707.69 106.736C708.906 106.291 710.252 106.915 710.697 108.13C711.143 109.346 710.518 110.692 709.303 111.137Z" fill="#544D4C"/>
        <path d="M646.005 101.877L650.406 100.265L639.925 71.6557C639.819 71.3666 639.658 71.1013 639.449 70.8749C639.241 70.6484 638.99 70.4653 638.71 70.3359L632.696 67.5469L630.725 71.7989L635.858 74.1793L646.005 101.877Z" fill="#544D4C"/>
        <path d="M621.797 110.746L610.793 114.777L614.018 123.58L621.909 120.689C622.493 120.475 622.968 120.038 623.229 119.474L625.202 115.222C625.331 114.942 625.404 114.64 625.417 114.333C625.43 114.025 625.382 113.718 625.276 113.429L624.804 112.14C624.59 111.557 624.153 111.082 623.589 110.82C623.025 110.559 622.381 110.532 621.797 110.746Z" fill="#FFEAAA"/>
        <path d="M658.848 80.4306L662.046 73.5357L658.158 71.7326L660.13 67.4807L672.157 73.0587L670.186 77.3106L666.298 75.5077L663.1 82.4024L658.848 80.4306Z" fill="#8F8781"/>
        <path d="M658.621 102.248L665.423 84.0389C665.629 83.4857 665.619 82.875 665.395 82.3287C665.171 81.7825 664.749 81.341 664.213 81.0926L658.042 78.2306C657.763 78.1011 657.461 78.0279 657.153 78.0151C656.846 78.0024 656.539 78.0503 656.25 78.1561L650.559 80.2409L658.621 102.248Z" fill="#544D4C"/>
        <path d="M668.818 96.0156L657.815 100.047L659.427 104.448L670.431 100.417L668.818 96.0156Z" fill="#544D4C"/>
        <path d="M633.302 148.964C632.086 149.41 630.74 148.785 630.295 147.57C629.85 146.355 630.474 145.008 631.689 144.563C632.905 144.118 634.251 144.742 634.696 145.958C635.142 147.173 634.517 148.519 633.302 148.964Z" fill="#544D4C"/>
        <path d="M659.645 111.857L664.047 110.244L651.481 75.9438L657.637 62.671L678.732 54.9426L685.988 74.7491L690.39 73.1366L682.328 51.1294C682.222 50.8403 682.06 50.5749 681.852 50.3483C681.644 50.1217 681.393 49.9384 681.113 49.8089C680.834 49.6794 680.532 49.6062 680.224 49.5935C679.917 49.5808 679.61 49.6289 679.321 49.7349L655.113 58.6034C654.824 58.7092 654.559 58.8709 654.332 59.0794C654.106 59.2878 653.922 59.5389 653.793 59.8181L647.229 73.9719C646.71 75.1005 646.656 76.3883 647.08 77.5562L659.645 111.857Z" fill="#8F8781"/>
        <path d="M653.36 51.7578L681.303 41.5211C681.887 41.3072 682.532 41.334 683.095 41.5956C683.659 41.8571 684.096 42.3319 684.31 42.9156L686.729 49.5177L649.317 63.2235L648.136 59.9998C648.003 59.6375 647.962 59.2481 648.016 58.866C648.069 58.4839 648.217 58.1211 648.445 57.8097L652.275 52.5746C652.548 52.2012 652.926 51.917 653.36 51.7578Z" fill="#EEAC13"/>
        <path d="M646.916 101.543L657.008 97.8457L664.264 117.652C664.478 118.236 664.451 118.881 664.19 119.444C663.928 120.008 663.453 120.445 662.87 120.659L651.866 124.69C651.283 124.904 650.638 124.877 650.074 124.616C649.51 124.354 649.073 123.879 648.859 123.296L643.55 108.802C643.336 108.219 643.363 107.574 643.624 107.01L645.596 102.758C645.726 102.478 645.909 102.227 646.135 102.019C646.362 101.81 646.627 101.649 646.916 101.543Z" fill="#C47010"/>
    </g>
    <rect y="405" width="1130" height="136" fill="url(#paint1_linear)"/>
    <defs>
        <linearGradient id="paint0_linear" x1="1077" y1="403" x2="18.5943" y2="393.144" gradientUnits="userSpaceOnUse">
            <stop stop-color="#5CC04A"/>
            <stop offset="1" stop-color="#8FDD3D"/>
        </linearGradient>
        <linearGradient id="paint1_linear" x1="0" y1="405" x2="1070.5" y2="405" gradientUnits="userSpaceOnUse">
            <stop stop-color="#8FDD3D"/>
            <stop offset="1" stop-color="#5CC04A"/>
        </linearGradient>
        <clipPath id="clip0">
            <rect width="150" height="150" transform="matrix(-0.938974 0.343987 0.343987 0.938974 710.653 5.80762)" fill="white"/>
        </clipPath>
    </defs>
</svg>