<svg width="176" height="176" viewBox="0 0 176 176" fill="none" xmlns="http://www.w3.org/2000/svg">
    <path d="M38.698 25.2725H20.9004V37.1487H38.698V25.2725Z" fill="#48C1E1"/>
    <path d="M42.369 23.9647C42.369 24.9385 41.5725 25.7354 40.5986 25.7354H18.9998C18.026 25.7354 17.2295 24.9385 17.2295 23.9647V11.2023C17.2295 10.2285 18.026 9.43164 18.9998 9.43164H40.5983C41.5721 9.43164 42.3686 10.2285 42.3686 11.2023L42.369 23.9647Z" fill="#046699"/>
    <g opacity="0.1">
        <path opacity="0.1" d="M24.6143 23.9647V11.2023C24.6143 10.2285 25.4107 9.43164 26.3849 9.43164H18.9998C18.026 9.43164 17.2295 10.2285 17.2295 11.2023V23.9647C17.2295 24.9385 18.026 25.7354 18.9998 25.7354H26.3849C25.4111 25.7354 24.6143 24.9385 24.6143 23.9647Z" fill="black"/>
    </g>
    <path d="M15.383 121.544C15.474 121.507 15.5449 121.432 15.5768 121.338C15.6091 121.245 15.5995 121.143 15.5514 121.057C15.4039 120.797 15.3293 120.541 15.3293 120.297C15.3293 118.402 19.533 116.373 25.7917 116.373C27.8057 116.373 29.7679 116.597 31.466 117.021C31.4935 117.028 31.5213 117.031 31.5492 117.031C31.6392 117.031 31.7269 116.996 31.7922 116.931C31.8778 116.845 31.9122 116.721 31.8826 116.604C30.7905 112.245 30.1652 107.765 30.0185 103.187C30.0164 103.133 30.013 103.08 30.0112 103.027C29.9916 102.373 29.9813 101.718 29.9813 101.06C29.9813 100.268 30.6245 99.6228 31.4155 99.6228H34.5212C34.6189 99.6228 34.7124 99.5812 34.7773 99.5083C34.8423 99.4354 34.8736 99.3381 34.8629 99.2409C34.812 98.7854 34.7883 98.4048 34.7883 98.0429C34.7883 93.1994 37.8855 88.9693 42.4956 87.5169C42.5904 87.487 42.6678 87.4172 42.7073 87.3258C42.7472 87.2343 42.7451 87.1302 42.7018 87.0405C42.2831 86.167 41.9895 85.254 41.8287 84.3273C41.0257 79.6932 43.4501 75.0793 47.724 73.1073C47.8856 73.0327 47.9636 72.847 47.9038 72.6793C47.703 72.1176 47.5511 71.5408 47.4514 70.9643C46.7996 67.2044 48.2702 63.5579 50.9941 61.2489V46.4866C50.9941 41.0519 46.558 36.6055 41.1353 36.6055H18.4619C13.04 36.6055 8.60352 41.0519 8.60352 46.4866V125.644C10.579 123.979 12.8564 122.585 15.383 121.544Z" fill="#A2DFF9"/>
    <path d="M42.4959 87.5163C42.5908 87.4864 42.6681 87.4166 42.7076 87.3252C42.7475 87.2337 42.7455 87.1296 42.7021 87.0399C42.2835 86.1664 41.9899 85.2534 41.829 84.3267C41.026 79.6926 43.4505 75.0788 47.7243 73.1067C47.8859 73.0321 47.9639 72.8464 47.9041 72.6787C47.7034 72.117 47.5514 71.5402 47.4517 70.9637C46.8 67.2038 48.2705 63.5573 50.9944 61.2483V54.6016H8.60352V91.1772H37.1757C38.5091 89.4963 40.3327 88.198 42.4959 87.5163Z" fill="#046699"/>
    <path opacity="0.1" d="M19.2495 117.258V46.4856C19.2495 41.0509 23.6855 36.6045 29.1079 36.6045H18.4619C13.04 36.6045 8.60352 41.0509 8.60352 46.4856V125.644C10.579 123.979 12.8564 122.585 15.383 121.543C15.474 121.506 15.5449 121.431 15.5768 121.338C15.6091 121.245 15.5995 121.142 15.5514 121.057C15.4039 120.796 15.3293 120.54 15.3293 120.296C15.3297 119.183 16.7834 118.024 19.2495 117.258Z" fill="black"/>
    <path d="M83.3733 64.7105C83.4727 65.2839 83.5239 65.8786 83.5249 66.4784C83.5253 66.6565 83.6611 66.8046 83.8384 66.8205C88.2388 67.2072 91.9179 70.3418 92.9946 74.6212C93.0241 74.7391 93.1142 74.8326 93.2307 74.867C93.263 74.8766 93.2953 74.881 93.328 74.881C93.4139 74.881 93.4978 74.8487 93.5624 74.7886C95.3554 73.1162 97.5867 72.1111 100.015 71.8822C100.188 71.866 100.321 71.724 100.326 71.5511C100.483 66.7307 102.443 62.1977 105.846 58.7874C105.917 58.7162 105.991 58.6499 106.064 58.5797C105.311 53.7803 103.099 49.1682 99.4168 45.4777C98.6926 44.7524 97.5186 44.7521 96.7933 45.4777L81.7041 60.6017C82.5277 61.8027 83.11 63.1929 83.3733 64.7105Z" fill="#EF5050"/>
    <path d="M92.994 74.6213C93.0235 74.7392 93.1136 74.8327 93.2301 74.8671C93.2624 74.8767 93.2947 74.8812 93.3274 74.8812C93.4133 74.8812 93.4972 74.8489 93.5618 74.7887C94.4377 73.9716 95.4195 73.3168 96.4769 72.8311C96.3586 72.4368 96.1444 72.0648 95.8333 71.7527L93.3305 69.2437C92.3254 68.2358 90.6929 68.2334 89.6847 69.2392C89.6771 69.2464 89.6713 69.2544 89.6641 69.2619C91.2673 70.629 92.456 72.4822 92.994 74.6213Z" fill="#C0272D"/>
    <path d="M98.3557 66.9902H94.8164C93.3923 66.9902 92.2383 65.8359 92.2383 64.4121C92.2383 62.9883 93.3923 61.834 94.8164 61.834H98.3557C99.7798 61.834 100.934 62.9883 100.934 64.4121C100.934 65.8363 99.7798 66.9902 98.3557 66.9902Z" fill="#C0272D"/>
    <path d="M94.3164 59.8678C93.6574 59.8678 92.9984 59.6169 92.4952 59.1147C91.4873 58.1089 91.4859 56.4764 92.4914 55.4685L94.9953 52.9599C96.0011 51.9523 97.6336 51.9506 98.6411 52.9564C99.649 53.9622 99.6503 55.5947 98.6449 56.6026L96.141 59.1113C95.6377 59.6152 94.9771 59.8678 94.3164 59.8678Z" fill="#C0272D"/>
    <path d="M126.639 54.6089C126.609 54.5302 126.562 54.4601 126.504 54.4013C126.445 54.3425 126.375 54.2958 126.296 54.2648C119.156 51.421 111.033 53.1009 105.602 58.5442C101.994 62.1604 100.046 66.9674 99.9746 71.8855C100.331 71.8504 100.693 71.8315 101.059 71.8315C106.406 71.8315 110.872 75.6712 111.864 80.7436C115.762 80.1083 119.454 78.2727 122.37 75.3501C127.801 69.9062 129.477 61.7651 126.639 54.6089Z" fill="#89C947"/>
    <path d="M117.376 63.5491C116.368 62.5433 114.735 62.545 113.73 63.5532L104.812 72.4917C106.495 73.1053 107.987 74.1194 109.175 75.4184L117.38 67.1949C118.386 66.187 118.384 64.5546 117.376 63.5491Z" fill="#D5E962"/>
    <path d="M130.341 84.1342C130.431 84.6539 130.477 85.1891 130.477 85.7254C130.478 85.9035 130.614 86.0516 130.791 86.0674C132.186 86.1901 133.516 86.6226 134.745 87.3527C134.799 87.3854 134.86 87.4012 134.92 87.4012C135.017 87.4012 135.112 87.3606 135.179 87.2833C135.473 86.9474 135.724 86.6755 135.971 86.4277C138.046 84.348 140.555 82.8637 143.291 82.0545C143.548 81.1044 143.687 80.1061 143.687 79.0745C143.687 72.7897 138.604 67.6943 132.333 67.6943C126.985 67.6943 122.503 71.4017 121.299 76.3912C125.783 76.4689 129.572 79.6977 130.341 84.1342Z" fill="#FFC502"/>
    <path d="M52.5276 99.3748C51.3764 97.3347 50.6476 95.0972 50.3692 92.7948C47.019 92.2468 44.1748 90.1011 42.7177 87.0889C37.945 88.4357 34.4453 92.8274 34.4453 98.0414C34.4453 98.4931 34.4797 98.9366 34.5309 99.3745H52.5276V99.3748Z" fill="#FFC502"/>
    <path d="M139.183 93.781C139.515 95.6967 139.251 97.6262 138.421 99.3755H153.011C156.456 94.5369 157.289 88.2222 155.049 82.5709C155.02 82.4991 154.978 82.4345 154.924 82.3805C154.87 82.3265 154.805 82.2836 154.734 82.255C148.176 79.6432 140.717 81.186 135.729 86.1851C135.364 86.5505 135.024 86.9321 134.696 87.3226C137.012 88.6825 138.702 91.0079 139.183 93.781Z" fill="#89C947"/>
    <path d="M138.421 99.3753H141.609L146.694 94.2789C147.7 93.271 147.698 91.6386 146.69 90.6331C145.682 89.6273 144.049 89.629 143.044 90.6372L139.269 94.4212C139.446 96.1238 139.158 97.8209 138.421 99.3753Z" fill="#D5E962"/>
    <path d="M93.3889 74.8204C92.3545 70.19 88.4351 66.879 83.8684 66.4779C83.8673 65.8753 83.8185 65.2651 83.712 64.6515C82.6993 58.8092 77.135 54.8976 71.2844 55.9162C68.2473 56.4449 65.7335 58.1997 64.155 60.5795C61.8694 58.8721 58.9114 58.0701 55.8744 58.5985C50.0227 59.6173 46.1009 65.1799 47.1143 71.0223C47.2202 71.6359 47.379 72.2271 47.5814 72.7943C43.2639 74.7863 40.6422 79.4857 41.4912 84.3852C42.2935 89.0165 45.9576 92.431 50.3569 93.1412C49.9306 90.1877 50.2727 87.1393 51.4142 84.2597C51.4252 84.2315 51.4417 84.2068 51.4634 84.1848C51.4844 84.1638 51.5098 84.1473 51.5377 84.136C53.5857 83.3203 55.7383 82.9064 57.9348 82.9064C62.5552 82.9064 66.9012 84.7114 70.172 87.9894C70.4085 88.2269 70.6354 88.472 70.8564 88.7209C70.6735 87.5357 70.5787 86.3291 70.5787 85.1064C70.5787 84.2711 71.2562 83.5915 72.0891 83.5915H90.0892C90.0737 83.3522 90.0624 83.1116 90.0624 82.8682C90.0624 79.7257 91.3336 76.8801 93.3889 74.8204Z" fill="#368C0E"/>
    <path d="M55.7403 75.8265C55.7252 75.8265 55.7104 75.8261 55.6956 75.8261C54.2718 75.8021 53.1374 74.6285 53.1615 73.2047C53.2371 68.7411 56.8981 65.1582 61.3496 65.1582C61.3933 65.1582 61.4366 65.1585 61.4806 65.1592C63.7232 65.1939 65.8775 66.1637 67.3904 67.8202C68.3504 68.8717 68.2765 70.5025 67.2254 71.4626C66.1742 72.423 64.5434 72.3491 63.583 71.2979C63.0165 70.6771 62.241 70.3282 61.3998 70.3151C59.724 70.288 58.3449 71.6245 58.3167 73.2924C58.2934 74.7007 57.1435 75.8261 55.7403 75.8265Z" fill="#89C947"/>
    <path d="M69.973 80.2626C69.6753 80.2626 69.3724 80.2107 69.0771 80.101C67.742 79.6057 67.061 78.1224 67.556 76.7872C68.9943 72.9101 73.3211 70.9205 77.2027 72.3522C79.1332 73.0651 80.7021 74.5601 81.5068 76.4541C82.0637 77.7645 81.4532 79.2784 80.1425 79.8353C78.8328 80.3925 77.3185 79.7816 76.7613 78.4709C76.5059 77.8704 76.0285 77.4153 75.4173 77.1894C74.198 76.7398 72.8415 77.3641 72.3905 78.5802C72.0052 79.6197 71.02 80.2626 69.973 80.2626Z" fill="#89C947"/>
    <path d="M112.047 83.5636H111.952C111.952 83.5877 111.952 83.6121 111.951 83.6361H115.404C116.429 83.6361 117.259 84.4684 117.259 85.4948C117.259 90.6751 115.587 95.4649 112.771 99.3754H138.791C139.569 97.6635 139.866 95.7128 139.521 93.7221C138.754 89.2974 135.098 86.1008 130.821 85.7251C130.821 85.181 130.775 84.6296 130.68 84.0758C129.765 78.7985 124.74 75.2658 119.455 76.1857C116.712 76.6639 114.441 78.2482 113.016 80.3984C112.554 80.0532 112.059 79.7528 111.542 79.4943C111.884 80.5585 112.07 81.6919 112.07 82.8685C112.07 83.0954 112.062 83.325 112.047 83.5636Z" fill="#368C0E"/>
    <path d="M112.387 83.5911C112.403 83.3518 112.414 83.1112 112.414 82.8678C112.414 76.5824 107.331 71.4873 101.059 71.4873C94.7888 71.4873 89.7051 76.5827 89.7051 82.8678C89.7051 83.1112 89.7164 83.3518 89.7319 83.5911H112.387Z" fill="#F7931E"/>
    <path d="M70.4153 87.7464C65.4271 82.7476 57.9674 81.2049 51.41 83.8163C51.3382 83.8452 51.2739 83.8882 51.2196 83.9418C51.166 83.9958 51.123 84.06 51.0945 84.1326C49.0884 89.1933 49.5476 94.7857 52.1381 99.3748H75.5406C73.1701 96.2171 71.5631 92.4537 70.999 88.3604C70.8099 88.1521 70.6157 87.9472 70.4153 87.7464Z" fill="#89C947"/>
    <path d="M62.9759 99.3747H70.2596L63.0996 92.1986C62.0938 91.1911 60.462 91.1883 59.4538 92.1945C58.4456 93.1999 58.4435 94.8324 59.4493 95.8403L62.9759 99.3747Z" fill="#D5E962"/>
    <path d="M112.944 99.3748C115.931 95.3955 117.712 90.4576 117.712 85.1057C117.712 84.0793 116.882 83.2471 115.857 83.2471H72.0886C71.0638 83.2471 70.2344 84.0793 70.2344 85.1057C70.2344 90.4576 72.0153 95.3955 75.0025 99.3748H112.944Z" fill="#EF5050"/>
    <path d="M96.6455 99.3742V97.5908C96.6455 96.167 95.4915 95.0127 94.0674 95.0127C92.6432 95.0127 91.4893 96.167 91.4893 97.5908V99.3742H96.6455Z" fill="#C0272D"/>
    <path d="M101.591 99.3743H105.6C106.429 98.3626 106.373 96.8673 105.429 95.9213L102.927 93.4126C101.921 92.4048 100.289 92.4024 99.2808 93.4082C98.2726 94.414 98.2709 96.0461 99.2763 97.054L101.591 99.3743Z" fill="#C0272D"/>
    <path d="M86.137 99.3749L88.4512 97.0553C89.457 96.0474 89.4552 94.415 88.4474 93.4095C87.4395 92.4037 85.807 92.4054 84.8012 93.4133L82.298 95.922C81.3544 96.8676 81.2977 98.3629 82.1268 99.3746L86.137 99.3749Z" fill="#C0272D"/>
    <path d="M82.1728 92.4219H78.6328C77.2087 92.4219 76.0547 91.2675 76.0547 89.8437C76.0547 88.4199 77.2087 87.2656 78.6328 87.2656H82.1728C83.5969 87.2656 84.7509 88.4199 84.7509 89.8437C84.7509 91.2675 83.5966 92.4219 82.1728 92.4219Z" fill="#C0272D"/>
    <path d="M109.315 92.4219H105.774C104.351 92.4219 103.196 91.2675 103.196 89.8437C103.196 88.4199 104.351 87.2656 105.774 87.2656H109.315C110.739 87.2656 111.893 88.4199 111.893 89.8437C111.893 91.2675 110.739 92.4219 109.315 92.4219Z" fill="#C0272D"/>
    <path d="M31.9621 117.152C31.993 117.161 32.0243 117.165 32.0552 117.165C32.1295 117.165 32.2024 117.141 32.2629 117.095C32.3488 117.03 32.399 116.929 32.399 116.821V112.458C32.399 111.226 33.4014 110.224 34.6334 110.224C35.8654 110.224 36.8677 111.226 36.8677 112.458V116.821C36.8677 116.929 36.9179 117.03 37.0039 117.095C37.0644 117.141 37.1372 117.165 37.2115 117.165C37.2428 117.165 37.274 117.161 37.3046 117.152C39.1131 116.642 41.2468 116.373 43.4739 116.373C49.7319 116.373 53.936 118.401 53.936 120.296C53.936 120.541 53.8614 120.797 53.7139 121.058C53.6651 121.143 53.6558 121.246 53.6881 121.339C53.7204 121.432 53.7909 121.507 53.882 121.545C61.8944 124.847 67.5722 131.853 68.7 139.828C68.7148 139.932 68.7756 140.023 68.8654 140.076C68.919 140.108 68.9795 140.124 69.0403 140.124C69.0816 140.124 69.1228 140.116 69.1624 140.101L123.432 119.485C124.482 119.086 125.584 118.884 126.707 118.884C128.281 118.884 129.838 119.29 131.21 120.057C133.596 121.392 135.249 123.695 135.746 126.375L136.218 128.927C136.239 129.037 136.311 129.131 136.414 129.177C136.459 129.198 136.508 129.208 136.556 129.208C136.617 129.208 136.678 129.192 136.731 129.161L154.977 118.389C156.545 112.802 157.34 107.01 157.34 101.06C157.34 100.076 156.544 99.2783 155.562 99.2783H31.4165C30.4348 99.2783 29.6387 100.076 29.6387 101.06C29.6387 106.543 30.3165 111.892 31.6486 117.07C31.7527 117.098 31.86 117.123 31.9621 117.152Z" fill="#E6E9ED"/>
    <path opacity="0.1" d="M31.9621 117.152C31.993 117.161 32.0243 117.165 32.0552 117.165C32.1295 117.165 32.2024 117.141 32.2629 117.095C32.3488 117.03 32.399 116.929 32.399 116.821V112.458C32.399 111.226 33.4014 110.224 34.6334 110.224C35.8654 110.224 36.8677 111.226 36.8677 112.458V116.821C36.8677 116.929 36.9179 117.03 37.0039 117.095C37.0644 117.141 37.1372 117.165 37.2115 117.165C37.2428 117.165 37.274 117.161 37.3046 117.152C38.8525 116.716 40.6397 116.457 42.519 116.392C41.3007 111.425 40.6837 106.303 40.6837 101.06C40.6837 100.076 41.4795 99.2783 42.4616 99.2783H31.4165C30.4348 99.2783 29.6387 100.076 29.6387 101.06C29.6387 106.543 30.3165 111.892 31.6486 117.07C31.7527 117.098 31.86 117.123 31.9621 117.152Z" fill="black"/>
    <path d="M34.6331 118.378C35.3392 117.982 36.2137 117.636 37.2119 117.355V112.457C37.2119 111.033 36.0579 109.879 34.6338 109.879C33.2096 109.879 32.0557 111.033 32.0557 112.457V117.355C33.0539 117.636 33.9274 117.982 34.6331 118.378Z" fill="#89C947"/>
    <path d="M60.9706 166.221L51.6591 166.224H51.6557C47.223 166.224 43.4222 163.074 42.6185 158.733L42.5267 158.24C41.7227 153.899 44.1461 149.605 48.2893 148.03L69.0907 140.128C68.0195 131.561 61.9819 124.385 53.6913 121.093C52.887 122.445 50.117 123.622 46.5104 124.045C46.3729 124.061 46.2581 124.159 46.2199 124.292C46.1818 124.425 46.2272 124.568 46.3354 124.655C48.2048 126.15 49.379 127.727 49.477 128.873C49.5127 129.288 49.4106 129.625 49.1645 129.902C48.7262 130.397 47.8641 130.659 46.672 130.659C46.672 130.659 46.672 130.659 46.6716 130.659C44.3506 130.659 41.2122 129.689 38.2759 128.063C36.9827 127.347 35.8322 126.564 34.8549 125.736C34.7906 125.682 34.7115 125.654 34.6328 125.654C34.5537 125.654 34.4747 125.682 34.4107 125.736C33.4328 126.565 32.2822 127.348 30.9904 128.063C28.0541 129.689 24.9153 130.659 22.5943 130.659C21.4019 130.659 20.5401 130.397 20.1018 129.902C19.8557 129.625 19.7533 129.288 19.789 128.873C19.8873 127.727 21.0616 126.151 22.9302 124.655C23.0381 124.568 23.0838 124.425 23.0457 124.292C23.0079 124.159 22.8931 124.061 22.7552 124.045C19.1476 123.622 16.3773 122.444 15.5743 121.092C6.41334 124.729 0 133.106 0 142.863C0 155.955 11.5435 166.568 25.7826 166.568H61.5312C61.9173 166.568 61.6186 166.431 60.9706 166.221Z" fill="#EF5050"/>
    <path opacity="0.1" d="M11.1547 142.863C11.1547 135.087 15.2274 128.185 21.5181 123.862C18.5226 123.339 16.2824 122.285 15.5739 121.092C6.41334 124.728 0 133.106 0 142.863C0 155.955 11.5435 166.568 25.7826 166.568H36.9377C22.6985 166.568 11.1547 155.955 11.1547 142.863Z" fill="black"/>
    <path d="M54.2804 120.296C54.2804 117.94 49.4425 116.029 43.4746 116.029C39.8192 116.029 36.5886 116.747 34.633 117.844C32.6788 116.747 29.4486 116.029 25.7925 116.029C19.825 116.029 14.9863 117.94 14.9863 120.296C14.9863 122.23 18.2471 123.863 22.7149 124.387C19.9817 126.574 18.7301 128.873 19.8439 130.13C21.3196 131.796 26.3851 131.005 31.1563 128.364C32.4959 127.622 33.6698 126.814 34.6323 125.998C35.5959 126.814 36.7705 127.622 38.109 128.364C42.8806 131.005 47.9458 131.796 49.4211 130.13C50.5352 128.873 49.284 126.574 46.5498 124.387C51.0206 123.863 54.2804 122.23 54.2804 120.296Z" fill="#368C0E"/>
    <path d="M175.96 135.562L175.267 131.827C175.029 130.538 173.786 129.687 172.492 129.924L145.772 134.832L162.832 123.428C163.641 122.887 164.015 121.933 163.849 121.026C163.802 120.774 163.713 120.528 163.581 120.293L161.65 116.873C161.337 116.316 160.809 115.909 160.189 115.744C159.57 115.579 158.91 115.669 158.358 115.995L136.164 129.096L140.363 151.763L165.819 156.338C166.453 156.452 167.107 156.305 167.631 155.931C168.154 155.556 168.504 154.986 168.599 154.351L169.174 150.49C169.214 150.224 169.208 149.962 169.162 149.711C168.994 148.803 168.301 148.046 167.352 147.829L147.328 143.236L174.048 138.327C175.343 138.089 176.198 136.852 175.96 135.562Z" fill="#89C947"/>
    <path d="M42.281 158.796C43.1153 163.3 47.0601 166.569 51.6595 166.568L132.086 166.537C134.916 166.536 137.6 165.282 139.41 163.115C141.221 160.948 141.971 158.092 141.458 155.319L136.085 126.311C135.571 123.539 133.847 121.138 131.379 119.756C128.911 118.375 125.956 118.158 123.311 119.162L48.1677 147.708C43.8701 149.342 41.3553 153.797 42.1892 158.302L42.281 158.796Z" fill="#F7931E"/>
    <g opacity="0.1">
        <path opacity="0.1" d="M42.281 158.795C42.4088 159.487 42.6182 160.145 42.8839 160.771C43.9925 158.802 45.7731 157.208 48.0209 156.354L126.495 126.542C129.257 125.494 132.344 125.72 134.921 127.162C135.463 127.466 135.968 127.818 136.436 128.209L136.085 126.311C135.571 123.539 133.847 121.138 131.379 119.756C128.911 118.375 125.956 118.158 123.311 119.162L48.1677 147.708C43.8701 149.342 41.3553 153.797 42.1892 158.302L42.281 158.795Z" fill="black"/>
    </g>
    <path d="M127.476 154.477C127.208 153.078 125.855 152.162 124.459 152.429C123.061 152.697 122.144 154.047 122.412 155.446L124.534 166.539L129.783 166.537L127.476 154.477Z" fill="#FFC502"/>
    <path d="M113.501 157.534C113.237 156.134 111.889 155.214 110.489 155.478C109.09 155.741 108.17 157.089 108.434 158.488L109.953 166.544L115.199 166.542L113.501 157.534Z" fill="#FFC502"/>
    <path d="M99.8388 138.116C100.133 139.286 101.184 140.065 102.337 140.065C102.545 140.065 102.758 140.04 102.969 139.986C104.349 139.639 105.187 138.238 104.839 136.857L102.385 127.111L97.5322 128.955L99.8388 138.116Z" fill="#FFC502"/>
    <path d="M86.4234 155.287C86.1707 153.886 84.8312 152.954 83.4287 153.207C82.0275 153.46 81.0963 154.801 81.349 156.202L83.2159 166.555L88.455 166.553L86.4234 155.287Z" fill="#FFC502"/>
    <path d="M60.4153 150.469C60.67 151.684 61.7414 152.518 62.9356 152.518C63.1113 152.518 63.2894 152.5 63.4681 152.462C64.8617 152.17 65.7537 150.803 65.4615 149.41L63.8538 141.75L58.9746 143.603L60.4153 150.469Z" fill="#FFC502"/>
</svg>