<svg width="200" height="200" viewBox="0 0 200 200" fill="none" xmlns="http://www.w3.org/2000/svg">
    <g clip-path="url(#clip0)">
        <path d="M182.26 109.653C182.26 159.551 141.806 200 91.9098 200C79.6692 200 68.0008 197.567 57.3578 193.155C28.2684 181.105 6.84204 154.297 2.41241 122.071C1.84937 118.012 1.5625 113.866 1.5625 109.653C1.5625 59.7523 42.012 19.3027 91.9098 19.3027C141.806 19.3027 182.26 59.7523 182.26 109.653Z" fill="#937DE2"/>
        <path d="M91.9099 19.3027C87.1323 19.3027 82.4433 19.6766 77.8672 20.3907C121.097 27.1366 154.176 64.5283 154.176 109.653C154.176 154.772 121.1 192.162 77.8733 198.911C82.4479 199.625 87.1339 200 91.9083 200C141.806 200 182.26 159.551 182.26 109.653C182.26 59.7523 141.806 19.3027 91.9099 19.3027Z" fill="#7570D6"/>
        <path d="M193.539 102.974L141.948 137.137C138.272 139.572 133.82 140.538 129.468 139.842C125.105 139.148 120.642 140.1 116.957 142.54L110.053 147.116L71.3867 90.1198L80.8731 49.1377C81.6101 45.9471 81.9748 42.7137 81.9748 39.4926C81.9748 31.1598 79.538 22.9353 74.8642 15.875C73.7152 14.1386 73.1659 12.1748 73.1659 10.2354C73.1659 6.92118 74.7742 3.66953 77.7466 1.70115C81.752 -0.952356 87.0606 -0.459497 90.509 2.88523L96.6553 8.83769C103.683 15.6568 109.105 23.9591 112.509 33.1419L115.842 42.1141L150.16 19.4395C155.641 15.811 163.055 17.3979 166.556 23.0116C169.931 28.4193 168.198 35.565 162.88 39.0852C162.816 39.1279 162.811 39.1966 162.833 39.2485C162.863 39.3049 162.927 39.3431 162.999 39.3125C164.355 38.7907 165.775 38.5374 167.181 38.5374C169.428 38.5374 171.654 39.1844 173.558 40.4158C174.87 41.2641 176.033 42.3918 176.95 43.7773C178.722 46.4537 179.25 49.5924 178.67 52.5099C177.76 57.1058 174.42 59.474 173.764 59.9195C173.653 59.9974 173.622 60.1515 173.7 60.2674C173.7 60.2705 173.705 60.2751 173.708 60.2751C173.781 60.3788 173.93 60.4078 174.037 60.3407C174.973 60.1133 175.925 60.005 176.877 60.005C179.201 60.005 181.512 60.6657 183.478 61.9184C184.807 62.7684 185.982 63.8914 186.891 65.2678C190.459 70.6541 188.985 77.9142 183.592 81.4833C183.46 81.5733 183.327 81.6633 183.194 81.7488C183.118 81.8098 183.095 81.9075 183.134 81.9761C183.142 81.9929 183.16 82.0112 183.177 82.0189C183.237 82.0662 183.331 82.0707 183.409 82.0112C186.758 80.8699 190.404 81.3887 193.337 83.2884C194.687 84.1551 195.885 85.3224 196.832 86.7537C200.401 92.1446 198.926 99.4047 193.539 102.974Z" fill="#FDD7BD"/>
        <path d="M110.546 157.933L88.7804 172.346L57.358 193.155C28.2686 181.103 6.84223 154.3 2.4126 122.07L38.8781 97.9216L61.0766 83.2198C63.6324 81.526 67.0809 82.2295 68.7746 84.7899L112.116 150.23C113.809 152.791 113.106 156.233 110.546 157.933Z" fill="#87DBFF"/>
        <path d="M110.545 157.933L88.7803 172.346L38.8779 97.9216L61.0764 83.2198C63.6323 81.526 67.0808 82.2295 68.7745 84.7899L112.116 150.229C113.809 152.791 113.106 156.233 110.545 157.933Z" fill="#6FC7FF"/>
        <path d="M173.558 40.4139L156.391 49.6013C153.955 50.9013 150.936 50.2223 149.298 48.0052L162.833 39.2482C162.863 39.3046 162.927 39.3428 162.999 39.3123C164.356 38.7904 165.775 38.5371 167.182 38.5371C169.429 38.5371 171.654 39.1841 173.558 40.4139Z" fill="#FAC5AA"/>
        <path d="M183.478 61.9183L166.684 70.8981C164.249 72.2028 161.229 71.5253 159.59 69.3082L173.125 60.5496L173.709 60.275C173.783 60.3787 173.932 60.4077 174.039 60.3406C174.974 60.1132 175.926 60.0049 176.879 60.0049C179.202 60.0049 181.514 60.6656 183.478 61.9183Z" fill="#FAC5AA"/>
        <path d="M193.338 83.2881L178.546 91.2013C176.114 92.4998 173.096 91.8223 171.453 89.6052L183.177 82.0186C183.239 82.0659 183.333 82.0705 183.409 82.0094C186.759 80.8696 190.404 81.3884 193.338 83.2881Z" fill="#FAC5AA"/>
    </g>
    <defs>
        <clipPath id="clip0">
            <rect width="200" height="200" fill="white"/>
        </clipPath>
    </defs>
</svg>