<svg width="200" height="200" viewBox="0 0 200 200" fill="none" xmlns="http://www.w3.org/2000/svg">
    <path d="M187.059 22.8936L162.912 16.4217C161.327 15.9964 159.672 15.8877 158.044 16.1019C156.417 16.316 154.847 16.8488 153.425 17.6698C152.003 18.4908 150.756 19.5838 149.757 20.8866C148.758 22.1894 148.025 23.6762 147.6 25.2623L130.625 88.6748L115.188 146.89C119.373 146.792 123.497 147.906 127.062 150.1H127.109L158.869 31.5155C159.083 30.7155 159.607 30.0334 160.324 29.6192C161.041 29.2049 161.894 29.0923 162.694 29.3061L183.825 34.9686C185.426 35.3975 187.132 35.1727 188.568 34.3438C190.003 33.5148 191.051 32.1495 191.48 30.5483C191.909 28.947 191.684 27.241 190.855 25.8055C190.026 24.3699 188.661 23.3225 187.059 22.8936Z" fill="#FF5023"/>
    <path d="M130.616 88.6498L46.1 66.0029L26.6875 138.45L27.025 138.572L111.275 161.587L130.616 88.6498Z" fill="#B38B63"/>
    <path d="M93.0529 144.11L29.7998 126.832L26.6748 138.45L27.0123 138.572L111.262 161.588L130.625 88.6504L127.531 87.8223L116.125 130.829C115.491 133.221 114.389 135.464 112.884 137.428C111.379 139.393 109.5 141.04 107.355 142.274C105.21 143.509 102.842 144.307 100.387 144.622C97.9328 144.937 95.44 144.763 93.0529 144.11Z" fill="#A97C50"/>
    <path d="M96.9781 157.328V157.285L26.6874 138.438L20.6499 136.819C19.8563 136.607 19.0285 136.553 18.214 136.66C17.3995 136.768 16.6141 137.035 15.9027 137.446C15.1913 137.857 14.5678 138.404 14.0679 139.056C13.568 139.708 13.2014 140.452 12.989 141.246C12.7766 142.039 12.7227 142.867 12.8302 143.682C12.9377 144.496 13.2046 145.281 13.6156 145.993C14.4458 147.43 15.8127 148.478 17.4156 148.907L93.7499 169.375V169.332C93.6313 165.108 94.7478 160.942 96.9624 157.344L96.9781 157.328Z" fill="#FF5023"/>
    <path d="M136.75 174.406C135.632 178.586 133.299 182.341 130.047 185.195C126.795 188.049 122.77 189.875 118.48 190.441C114.19 191.007 109.829 190.288 105.948 188.375C102.066 186.463 98.8396 183.442 96.6754 179.695C94.5112 175.948 93.5069 171.644 93.7894 167.326C94.0718 163.008 95.6285 158.871 98.2624 155.438C100.896 152.005 104.489 149.43 108.587 148.04C112.684 146.649 117.102 146.505 121.281 147.625C124.056 148.366 126.658 149.647 128.938 151.395C131.217 153.142 133.13 155.322 134.567 157.809C136.003 160.296 136.936 163.042 137.31 165.89C137.685 168.738 137.494 171.632 136.75 174.406Z" fill="#006DF0"/>
    <path d="M124.687 171.175C125.165 169.384 125.102 167.492 124.504 165.737C123.907 163.982 122.803 162.444 121.332 161.316C119.86 160.189 118.088 159.523 116.238 159.403C114.388 159.282 112.544 159.713 110.939 160.64C109.334 161.568 108.04 162.95 107.221 164.613C106.401 166.275 106.093 168.144 106.335 169.982C106.577 171.819 107.358 173.544 108.58 174.938C109.802 176.332 111.41 177.332 113.2 177.813C114.39 178.132 115.631 178.213 116.853 178.053C118.075 177.892 119.253 177.492 120.32 176.875C121.387 176.259 122.321 175.438 123.071 174.46C123.82 173.482 124.37 172.366 124.687 171.175Z" fill="#F1F2F2"/>
    <path d="M71.2153 105.088L81.8872 101.475L89.3247 109.941L97.4122 79.7535L79.3028 74.9004L71.2153 105.088Z" fill="#FFB655"/>
    <path d="M143.562 40.3437L130.625 88.6562L97.4062 79.75L79.3125 74.9062L64.2188 70.8438L77.1563 22.5625L104.313 29.8438L116.406 33.0625L143.562 40.3437Z" fill="#CBA57C"/>
    <path d="M133.859 70.3279C133.435 71.914 132.702 73.4009 131.702 74.7037C130.703 76.0064 129.457 77.0995 128.035 77.9205C126.613 78.7415 125.043 79.2743 123.415 79.4884C121.787 79.7025 120.133 79.5939 118.547 79.1686L97.4062 73.4998L79.3125 68.6561L65.7812 65.0154L64.2188 70.8436L79.3125 74.9061L97.4062 79.7498L130.625 88.6561L143.562 40.3436L142 39.9248L133.859 70.3279Z" fill="#C49A6C"/>
    <path d="M79.3032 74.9004L97.4126 79.7535L79.3032 74.9004Z" fill="#9BC9FF"/>
    <path d="M97.8467 53.9877L105.5 49.5689L109.922 57.2252L116.39 33.0752L104.319 29.8408L97.8467 53.9877Z" fill="#FFB655"/>
</svg>