<svg width="270" height="55" viewBox="0 0 270 55" fill="none" xmlns="http://www.w3.org/2000/svg">
    <path d="M14.6884 7.30754H3.06915C1.43053 7.30754 0.0898438 5.95716 0.0898438 4.30669C0.0898438 2.65622 1.43053 1.38086 3.06915 1.38086H32.6388C34.2774 1.38086 35.5436 2.65622 35.5436 4.30669C35.5436 5.95716 34.2774 7.30754 32.6388 7.30754H21.0195V51.27C21.0195 52.9955 19.6043 54.4959 17.8167 54.4959C16.1036 54.4959 14.6884 52.9955 14.6884 51.27V7.30754Z" fill="#5CC04A"/>
    <path d="M31.2231 34.7654C31.2231 23.6623 39.7142 14.8848 50.8866 14.8848C56.3238 14.8848 60.8672 16.9854 63.7721 19.6861C64.4424 20.2863 64.8893 21.1115 64.8893 22.0118C64.8893 22.762 64.6659 23.4372 63.921 24.2624L50.6631 40.2419C50.0673 40.9171 49.3969 41.2172 48.5776 41.2172C46.939 41.2172 45.7473 40.0919 45.7473 38.5165C45.7473 37.8413 45.8962 37.1661 46.4176 36.6409L58.0369 22.837C56.1003 21.1865 53.3445 20.4363 50.8866 20.4363C43.2893 20.4363 37.2562 26.7381 37.2562 34.7654C37.2562 42.7176 43.2149 49.0944 50.8866 49.0944C55.1321 49.0944 58.4838 47.2189 60.7928 44.5932C61.6121 43.843 62.2824 43.2428 63.3252 43.2428C65.0383 43.2428 66.3045 44.4431 66.3045 46.0936C66.3045 46.6938 65.9321 47.519 65.4107 48.1192C62.2824 51.8702 57.1431 54.646 50.8866 54.646C39.7887 54.646 31.2231 45.8685 31.2231 34.7654Z" fill="#5CC04A"/>
    <path d="M74.498 31.0894C74.498 21.4116 80.6056 14.8848 89.8414 14.8848C91.3311 14.8848 92.5973 16.0851 92.5973 17.6606C92.5973 19.161 91.3311 20.4363 89.8414 20.4363C84.3297 20.4363 80.4566 24.1124 80.4566 31.0894V51.4201C80.4566 53.1456 79.116 54.496 77.4773 54.496C75.7642 54.496 74.498 53.1456 74.498 51.4201V31.0894Z" fill="#5CC04A"/>
    <path d="M97.7358 31.0894C97.7358 21.4116 103.843 14.8848 113.079 14.8848C114.569 14.8848 115.835 16.0851 115.835 17.6606C115.835 19.161 114.569 20.4363 113.079 20.4363C107.568 20.4363 103.694 24.1124 103.694 31.0894V51.4201C103.694 53.1456 102.354 54.496 100.715 54.496C99.002 54.496 97.7358 53.1456 97.7358 51.4201V31.0894Z" fill="#5CC04A"/>
    <path d="M152.255 48.6443C148.755 52.3954 143.913 54.646 138.327 54.646C127.378 54.646 119.036 45.8685 119.036 34.7654C119.036 23.6623 127.378 14.8848 138.327 14.8848C143.913 14.8848 148.755 17.2104 152.255 20.8865V18.0357C152.255 16.3852 153.596 15.0348 155.235 15.0348C156.948 15.0348 158.214 16.3852 158.214 18.0357V51.4201C158.214 53.1456 156.948 54.496 155.235 54.496C153.596 54.496 152.255 53.1456 152.255 51.4201V48.6443ZM152.255 35.3656V34.1652C151.957 26.363 146.073 20.4363 138.7 20.4363C131.102 20.4363 125.069 26.6631 125.069 34.7654C125.069 42.8677 131.102 49.0944 138.7 49.0944C146.073 49.0944 151.957 43.1678 152.255 35.3656Z" fill="#5CC04A"/>
    <path d="M199.85 48.6438C196.349 52.3949 191.508 54.6455 185.921 54.6455C174.972 54.6455 166.63 45.868 166.63 34.7649C166.63 23.6618 174.972 14.8843 185.921 14.8843C191.508 14.8843 196.349 17.2099 199.85 20.886V3.78112C199.85 2.13065 201.19 0.780273 202.829 0.780273C204.542 0.780273 205.808 2.13065 205.808 3.78112V51.4196C205.808 53.1451 204.542 54.4955 202.829 54.4955C201.19 54.4955 199.85 53.1451 199.85 51.4196V48.6438ZM199.85 35.3651V34.1647C199.552 26.3625 193.668 20.4358 186.294 20.4358C178.697 20.4358 172.663 26.6626 172.663 34.7649C172.663 42.8672 178.697 49.0939 186.294 49.0939C193.668 49.0939 199.552 43.1673 199.85 35.3651Z" fill="#5CC04A"/>
    <path d="M215.193 6.33212C215.193 4.23152 216.831 2.58105 218.917 2.58105C220.928 2.58105 222.641 4.23152 222.641 6.33212C222.641 8.35769 220.928 10.0832 218.917 10.0832C216.831 10.0832 215.193 8.35769 215.193 6.33212ZM215.938 18.0354C215.938 16.385 217.204 15.0346 218.917 15.0346C220.556 15.0346 221.896 16.385 221.896 18.0354V51.4199C221.896 53.1454 220.556 54.4957 218.917 54.4957C217.204 54.4957 215.938 53.1454 215.938 51.4199V18.0354Z" fill="#5CC04A"/>
    <path d="M263.458 48.6443C259.957 52.3954 255.116 54.646 249.53 54.646C238.581 54.646 230.239 45.8685 230.239 34.7654C230.239 23.6623 238.581 14.8848 249.53 14.8848C255.116 14.8848 259.957 17.2104 263.458 20.8865V18.0357C263.458 16.3852 264.799 15.0348 266.437 15.0348C268.15 15.0348 269.417 16.3852 269.417 18.0357V51.4201C269.417 53.1456 268.15 54.496 266.437 54.496C264.799 54.496 263.458 53.1456 263.458 51.4201V48.6443ZM263.458 35.3656V34.1652C263.16 26.363 257.276 20.4363 249.902 20.4363C242.305 20.4363 236.272 26.6631 236.272 34.7654C236.272 42.8677 242.305 49.0944 249.902 49.0944C257.276 49.0944 263.16 43.1678 263.458 35.3656Z" fill="#5CC04A"/>
</svg>