<svg width="176" height="176" viewBox="0 0 176 176" fill="none" xmlns="http://www.w3.org/2000/svg">
    <path d="M88 176C136.601 176 176 136.601 176 88C176 39.3989 136.601 0 88 0C39.3989 0 0 39.3989 0 88C0 136.601 39.3989 176 88 176Z" fill="#5CC04A"/>
    <path d="M59.7288 135.257C49.7509 145.235 42.1288 144.403 36.8627 139.137C31.5965 133.871 30.765 126.111 40.743 116.271C50.721 106.293 67.628 97.8397 72.8942 103.106C78.0217 108.372 69.7068 125.279 59.7288 135.257Z" fill="#FF7058"/>
    <path d="M92.989 101.997L74.0031 83.0107L59.3134 97.7005C58.0661 98.9478 58.0661 101.026 59.3134 102.274L73.726 116.686C74.9732 117.934 77.052 117.934 78.2992 116.686L92.989 101.997Z" fill="#2B3B4E"/>
    <path d="M101.858 115.301C124.59 115.301 143.017 96.873 143.017 74.1415C143.017 51.41 124.59 32.9824 101.858 32.9824C79.1268 32.9824 60.6992 51.41 60.6992 74.1415C60.6992 96.873 79.1268 115.301 101.858 115.301Z" fill="#324A5E"/>
    <path d="M101.858 106.432C119.691 106.432 134.148 91.9754 134.148 74.1423C134.148 56.3092 119.691 41.8525 101.858 41.8525C84.025 41.8525 69.5684 56.3092 69.5684 74.1423C69.5684 91.9754 84.025 106.432 101.858 106.432Z" fill="#84DBFF"/>
    <path d="M102.689 60.145C107.741 60.145 111.836 57.6012 111.836 54.4631C111.836 51.3251 107.741 48.7812 102.689 48.7812C97.638 48.7812 93.543 51.3251 93.543 54.4631C93.543 57.6012 97.638 60.145 102.689 60.145Z" fill="white"/>
</svg>