<svg width="200" height="237" viewBox="0 0 200 237" fill="none" xmlns="http://www.w3.org/2000/svg">
    <path d="M103.125 8.125H107.5V11.25H103.125V8.125Z" fill="#FEC093"/>
    <path d="M100.625 21.875L103.26 18.5912C103.052 18.4817 102.831 18.3989 102.602 18.3447L95.5859 16.543V21.875H100.625Z" fill="#404F66"/>
    <path d="M104.732 20.5331C104.648 20.1196 104.473 19.7302 104.218 19.3939C103.963 19.0576 103.636 18.7831 103.26 18.5908L100.625 21.8746L101.514 25.8771L104.109 22.9137C104.387 22.5901 104.587 22.2076 104.695 21.7951C104.803 21.3827 104.815 20.9511 104.732 20.5331Z" fill="#FEC093"/>
    <path d="M111.25 24.375C109.89 24.375 108.561 24.7782 107.43 25.5336C106.3 26.2891 105.419 27.3628 104.898 28.619C104.378 29.8753 104.242 31.2576 104.507 32.5912C104.772 33.9249 105.427 35.1499 106.389 36.1114C107.35 37.0728 108.575 37.7276 109.909 37.9929C111.242 38.2582 112.625 38.122 113.881 37.6017C115.137 37.0813 116.211 36.2001 116.966 35.0695C117.722 33.939 118.125 32.6097 118.125 31.25C118.125 29.4266 117.401 27.678 116.111 26.3886C114.822 25.0993 113.073 24.375 111.25 24.375ZM111.25 35.625C110.385 35.625 109.539 35.3684 108.819 34.8877C108.1 34.4069 107.539 33.7237 107.208 32.9242C106.877 32.1248 106.79 31.2451 106.959 30.3965C107.128 29.5478 107.545 28.7683 108.156 28.1564C108.768 27.5446 109.548 27.1279 110.396 26.9591C111.245 26.7903 112.125 26.8769 112.924 27.208C113.724 27.5392 114.407 28.0999 114.888 28.8194C115.368 29.5388 115.625 30.3847 115.625 31.25C115.625 32.4103 115.164 33.5231 114.344 34.3436C113.523 35.1641 112.41 35.625 111.25 35.625Z" fill="#4D5E78"/>
    <path d="M88.75 24.375C87.3903 24.375 86.061 24.7782 84.9305 25.5336C83.7999 26.2891 82.9187 27.3628 82.3983 28.619C81.878 29.8753 81.7418 31.2576 82.0071 32.5912C82.2724 33.9249 82.9272 35.1499 83.8886 36.1114C84.8501 37.0728 86.0751 37.7276 87.4088 37.9929C88.7424 38.2582 90.1247 38.122 91.381 37.6017C92.6372 37.0813 93.7109 36.2001 94.4664 35.0695C95.2218 33.939 95.625 32.6097 95.625 31.25C95.625 30.3472 95.4472 29.4532 95.1017 28.619C94.7562 27.7849 94.2498 27.027 93.6114 26.3886C92.973 25.7502 92.2151 25.2438 91.381 24.8983C90.5468 24.5528 89.6528 24.375 88.75 24.375ZM88.75 35.625C87.8847 35.625 87.0388 35.3684 86.3194 34.8877C85.5999 34.4069 85.0392 33.7237 84.708 32.9242C84.3769 32.1248 84.2903 31.2451 84.4591 30.3965C84.6279 29.5478 85.0446 28.7683 85.6564 28.1564C86.2683 27.5446 87.0478 27.1279 87.8965 26.9591C88.7451 26.7903 89.6248 26.8769 90.4242 27.208C91.2237 27.5392 91.907 28.0999 92.3877 28.8194C92.8684 29.5388 93.125 30.3847 93.125 31.25C93.125 32.4103 92.6641 33.5231 91.8436 34.3436C91.0231 35.1641 89.9103 35.625 88.75 35.625Z" fill="#4D5E78"/>
    <path d="M111.25 20.625H110V21.875H111.25C111.913 21.875 112.549 21.6116 113.018 21.1428C113.486 20.6739 113.75 20.038 113.75 19.375C113.75 18.712 113.486 18.0761 113.018 17.6072C112.549 17.1384 111.913 16.875 111.25 16.875H106.875C106.777 16.8749 106.681 16.8977 106.594 16.9416C106.506 16.9855 106.431 17.0492 106.372 17.1277C106.314 17.2062 106.275 17.2972 106.259 17.3934C106.242 17.4897 106.248 17.5885 106.277 17.6819L107.173 20.625H95.2718L94.1013 17.9883L92.9594 18.4961L94.2119 21.3176L87.6002 31.5356C87.5392 31.63 87.5047 31.739 87.5004 31.8513C87.4962 31.9636 87.5223 32.075 87.576 32.1737C87.6297 32.2724 87.709 32.3548 87.8056 32.4122C87.9021 32.4696 88.0124 32.5 88.1248 32.5H99.3748C99.467 32.5 99.5581 32.4796 99.6415 32.4402C99.725 32.4009 99.7986 32.3435 99.8573 32.2723L107.787 22.6434L110.652 32.0569L111.847 31.6931L107.719 18.125H111.25C111.581 18.125 111.899 18.2567 112.134 18.4911C112.368 18.7255 112.5 19.0435 112.5 19.375C112.5 19.7065 112.368 20.0245 112.134 20.2589C111.899 20.4933 111.581 20.625 111.25 20.625ZM94.8175 22.682L98.6207 31.25H89.2738L94.8175 22.682ZM99.6699 30.5336L95.8267 21.875H106.8L99.6699 30.5336Z" fill="#7EB457"/>
    <path d="M96.173 16.875H90.625C90.807 17.421 91.1562 17.8959 91.6231 18.2324C92.09 18.5689 92.651 18.75 93.2266 18.75H93.75L96.3433 18.2578C96.4951 18.2199 96.63 18.1322 96.7263 18.0089C96.8226 17.8855 96.875 17.7335 96.875 17.577C96.875 17.3908 96.801 17.2122 96.6694 17.0806C96.5378 16.949 96.3592 16.875 96.173 16.875Z" fill="#4D5E78"/>
    <path d="M99.375 34.375C100.756 34.375 101.875 33.2557 101.875 31.875C101.875 30.4943 100.756 29.375 99.375 29.375C97.9943 29.375 96.875 30.4943 96.875 31.875C96.875 33.2557 97.9943 34.375 99.375 34.375Z" fill="#E0E0DE"/>
    <path d="M112.5 19.375C112.5 19.7064 112.368 20.0241 112.133 20.2585C111.899 20.4928 111.581 20.6246 111.25 20.625H110V21.875H111.25C111.913 21.875 112.549 21.6116 113.018 21.1428C113.487 20.6739 113.75 20.038 113.75 19.375C113.75 18.712 113.487 18.0761 113.018 17.6072C112.549 17.1384 111.913 16.875 111.25 16.875H110V18.125H111.25C111.581 18.1254 111.899 18.2572 112.133 18.4916C112.368 18.7259 112.5 19.0436 112.5 19.375Z" fill="#4D5E78"/>
    <path d="M103.125 8.125H102.644C100.079 8.12499 97.5438 8.68171 95.2146 9.75672L94.0298 10.3036C93.0133 10.7727 92.1525 11.5232 91.5491 12.4663C90.9457 13.4093 90.625 14.5054 90.625 15.625H96.173L96.25 14.375H101.875L105 12.5V10C105 9.50272 104.802 9.02581 104.451 8.67417C104.099 8.32254 103.622 8.125 103.125 8.125Z" fill="#7EB457"/>
    <path d="M105 10V12.5L101.875 14.375H97.4697C99.1611 13.4172 102.171 11.3547 103.605 8.1875C104.005 8.29334 104.359 8.5285 104.611 8.85634C104.863 9.18417 105 9.58627 105 10Z" fill="#77AD50"/>
    <path d="M96.25 16.25L96.173 15.625H90.625V16.7426C90.625 17.178 90.716 17.6087 90.8921 18.0069C91.0683 18.4051 91.3257 18.7622 91.6479 19.0551L96.5179 23.4823L99.5312 20.4688L96.25 16.25Z" fill="#4D5E78"/>
    <path d="M110 5.62505H102.5C102.499 5.13248 102.596 4.64463 102.784 4.18956C102.973 3.7345 103.25 3.32121 103.598 2.97349C103.754 2.81708 103.923 2.67509 104.105 2.54927C104.667 2.15713 105.326 1.92659 106.01 1.8827C106.694 1.8388 107.377 1.98324 107.985 2.3003C108.592 2.61736 109.102 3.09493 109.457 3.68109C109.812 4.26726 110 4.9396 110 5.62505Z" fill="#7EB457"/>
    <path d="M110 5.62505H108.111C108.067 5.15277 107.926 4.69458 107.697 4.27927C107.468 3.86395 107.156 3.50047 106.78 3.21164C106.404 2.92281 105.972 2.71488 105.511 2.6009C105.051 2.48691 104.572 2.46933 104.104 2.54927C104.667 2.15713 105.326 1.92659 106.01 1.8827C106.694 1.8388 107.377 1.98324 107.984 2.3003C108.592 2.61736 109.101 3.09493 109.457 3.68109C109.812 4.26726 110 4.9396 110 5.62505Z" fill="#77AD50"/>
    <path d="M110 5.625V8.75C110 9.41304 109.737 10.0489 109.268 10.5178C108.799 10.9866 108.163 11.25 107.5 11.25C106.837 11.25 106.201 10.9866 105.732 10.5178C105.263 10.0489 105 9.41304 105 8.75V5.625H110Z" fill="#FEC9A3"/>
    <path d="M110 5.625V8.75C110 9.1382 109.909 9.52102 109.735 9.86816C109.562 10.2153 109.31 10.5173 108.999 10.7501C108.688 10.9829 108.328 11.1403 107.946 11.2097C107.564 11.2791 107.171 11.2587 106.798 11.15C107.212 10.8291 107.546 10.4178 107.776 9.94762C108.006 9.47745 108.125 8.96088 108.125 8.4375V5.9375C108.125 5.83203 108.12 5.72813 108.111 5.625H110Z" fill="#FEC093"/>
    <path d="M105 8.125H103.125L102.5 5.625H105V8.125Z" fill="#4D5E78"/>
    <path d="M105 9.6875C105 9.2731 104.835 8.87567 104.542 8.58265C104.249 8.28962 103.852 8.125 103.438 8.125C103.023 8.125 102.626 8.28962 102.333 8.58265C102.04 8.87567 101.875 9.2731 101.875 9.6875V12.5H105V9.6875Z" fill="#88C25E"/>
    <path d="M105 15.625V12.5H101.875V16.25C101.875 16.913 102.138 17.5489 102.607 18.0178C103.076 18.4866 103.712 18.75 104.375 18.75H113.125V16.25L105 15.625Z" fill="#FEC9A3"/>
    <path d="M100.625 21.875L99.5314 20.4688L96.5181 23.4821L97.5002 24.375L99.9307 33.125H103.125L100.625 21.875Z" fill="#FEC9A3"/>
    <path d="M103.125 33.125H99.9307L100.625 35.625H105V34.375L103.125 33.125Z" fill="#7EB457"/>
    <path d="M106.875 6.25H108.125V7.5H106.875V6.25Z" fill="#4D5E78"/>
    <path d="M121.652 39.3584C122.299 39.5013 122.943 39.6501 123.584 39.8055C122.943 39.6501 122.299 39.5009 121.652 39.3584Z" fill="#48BBEE"/>
    <path d="M119.41 38.8896C119.769 38.9605 120.129 39.0301 120.487 39.1046C120.129 39.0301 119.769 38.9605 119.41 38.8896Z" fill="#48BBEE"/>
    <path d="M124.385 40C124.824 40.1104 125.263 40.2237 125.699 40.3396C125.262 40.2237 124.824 40.11 124.385 40Z" fill="#48BBEE"/>
    <path d="M126.345 40.5146C127.927 40.9463 129.494 41.4138 131.044 41.9205C129.494 41.4142 127.927 40.9455 126.345 40.5146Z" fill="#48BBEE"/>
    <path d="M102.315 37.0293C102.546 37.0347 102.777 37.0422 103.007 37.0489C102.777 37.0422 102.546 37.0347 102.315 37.0293Z" fill="#48BBEE"/>
    <path d="M131.277 41.9961C131.82 42.1748 132.362 42.3578 132.9 42.5457C132.362 42.3582 131.821 42.1748 131.277 41.9961Z" fill="#48BBEE"/>
    <path d="M104.704 37.1133C104.934 37.1241 105.164 37.1337 105.394 37.1458C105.164 37.1337 104.934 37.1241 104.704 37.1133Z" fill="#48BBEE"/>
    <path d="M107.643 37.2881C107.754 37.2964 107.865 37.3077 107.976 37.3164C107.865 37.3077 107.754 37.2964 107.643 37.2881Z" fill="#48BBEE"/>
    <path d="M115.089 38.1328C115.352 38.1728 115.614 38.2178 115.876 38.2595C115.614 38.2174 115.353 38.1724 115.089 38.1328Z" fill="#48BBEE"/>
    <path d="M85.9606 115.208C89.5314 115.208 93.0276 116.251 96.0581 118.256L104.617 123.922C106.328 125.055 108.465 125.337 110.411 124.686L125.807 119.539L128.382 117.213C129.925 115.82 130.804 113.827 130.798 111.747C130.788 109.967 130.13 108.256 128.968 106.935L112.7 111.762C112.138 111.928 111.529 111.788 111.097 111.392L100.169 101.391C99.4431 100.725 98.6356 100.984 98.4076 101.08C98.1797 101.175 97.4247 101.56 97.3789 102.54L98.3197 109.96C98.4043 110.647 98.056 111.316 97.441 111.638C96.8289 111.96 96.0772 111.871 95.5593 111.41L86.4872 103.367C83.3689 101.72 79.5439 102.211 76.9301 104.631L74.0293 111.917C73.5739 113.061 72.811 114.056 71.8247 114.793L67.2197 118.232L82.7501 115.491C83.8185 115.302 84.8926 115.208 85.9606 115.208Z" fill="#48BBEE"/>
    <path d="M132.988 42.5762C140.987 45.3728 148.522 49.157 155.448 53.7812C155.441 53.7816 155.432 53.782 155.424 53.7824C162.401 58.4387 168.76 63.9474 174.35 70.1633L174.358 70.1491C177.388 73.5174 180.181 77.1003 182.733 80.8595C182.818 80.9837 182.902 81.1078 182.986 81.2328C184 82.7399 184.974 84.2753 185.906 85.8391C186.046 86.0733 186.184 86.3078 186.322 86.5428C187.031 87.7541 187.724 88.9758 188.384 90.2187L188.379 90.2349C193.996 100.832 197.768 112.559 199.256 124.99C199.021 125.019 198.779 125.024 198.545 124.952L166.432 114.747L167.93 121.405C168.246 122.8 169.105 123.953 170.348 124.658C171.592 125.362 173.024 125.5 174.378 125.052L178.086 123.825C178.597 123.654 179.151 123.739 179.587 124.056C180.02 124.369 180.277 124.872 180.277 125.407V134.463V134.469C180.277 138.164 178.526 141.639 175.557 143.838L166.021 151.507C164.551 152.688 162.396 152.417 161.265 150.909L145.833 130.332C144.206 128.163 141.956 126.541 139.383 125.683L133.333 123.666L158.558 156.425C160.824 158.311 163.743 159.311 166.823 159.097L171.556 158.774C172.067 158.751 172.569 158.941 172.913 159.325C173.255 159.71 173.402 160.229 173.311 160.735L171.364 171.464C171.299 171.814 171.126 172.135 170.866 172.379L151.335 190.78L136.742 227.668C136.553 228.148 136.149 228.515 135.651 228.656C133.812 229.185 131.941 229.446 130.082 229.446C126.693 229.446 123.34 228.578 120.3 226.872C115.622 224.25 112.263 219.97 110.841 214.817C109.714 210.735 109.167 208.015 109.167 206.501V192.588L106.915 191.722C101.726 189.727 97.1393 186.387 93.6464 182.064L88.4902 175.677L66.3351 179.632C65.3789 179.805 64.4201 179.872 63.4697 179.858C69.8676 203.482 84.7081 223.635 104.552 236.884C103.042 236.952 101.526 237 100 237C155.229 237 200 192.228 200 137C200 93.3312 172.007 56.207 132.988 42.5762Z" fill="#48BBEE"/>
    <path d="M109.893 37.4873C110.163 37.514 110.433 37.5427 110.703 37.5715C110.433 37.5427 110.163 37.5136 109.893 37.4873Z" fill="#48BBEE"/>
    <path d="M112.191 37.7412C112.465 37.7745 112.738 37.8062 113.011 37.842C112.738 37.8066 112.464 37.7745 112.191 37.7412Z" fill="#48BBEE"/>
    <path d="M129.85 99.5537L135.039 95.7174C135.253 95.5591 135.388 95.3441 135.553 95.1491L135.661 95.1129C136.58 93.9608 136.655 92.2962 135.735 91.0545C134.648 89.5766 132.555 89.2608 131.073 90.3562L126.77 93.5399H118.609C116.767 93.5399 115.276 95.0324 115.276 96.8733C115.276 98.7141 116.767 100.207 118.609 100.207H120.38H127.867C128.581 100.206 129.277 99.977 129.85 99.5537Z" fill="#48BBEE"/>
    <path d="M117.254 38.4883C117.598 38.5483 117.941 38.6104 118.284 38.6741C117.941 38.6104 117.598 38.5479 117.254 38.4883Z" fill="#48BBEE"/>
    <path d="M147.991 96.3699C148.671 96.3699 149.358 96.1616 149.95 95.7304C150.039 95.6658 150.123 95.597 150.203 95.5258C150.761 95.0258 151.104 94.3645 151.239 93.6666L151.258 93.6616C151.425 92.787 151.247 91.8483 150.679 91.0724L142.147 79.37C141.063 77.8854 138.98 77.5554 137.492 78.6408C136.005 79.725 135.676 81.8112 136.763 83.2991L145.295 95.0016C145.947 95.8949 146.963 96.3699 147.991 96.3699Z" fill="#48BBEE"/>
    <path d="M63.4692 179.859C61.8346 179.834 60.2271 179.544 58.7075 179.005C56.9183 178.373 55.2579 177.4 53.8154 176.135C53.7296 176.06 53.6437 175.986 53.5596 175.909C53.4229 175.784 53.2896 175.655 53.1575 175.525C53.0387 175.408 52.9225 175.288 52.8075 175.167C52.7004 175.054 52.5938 174.94 52.4896 174.823C52.3492 174.665 52.2137 174.502 52.0796 174.338C52.0025 174.243 51.9233 174.151 51.8479 174.054C51.6396 173.786 51.4379 173.511 51.2467 173.226V173.226L48.8221 169.615C45.21 164.237 43.8871 157.77 44.9217 151.57C44.9354 151.487 44.9471 151.403 44.9617 151.32C44.9796 151.22 45.0008 151.12 45.02 151.019C45.0529 150.846 45.0846 150.673 45.1213 150.5C45.1262 150.475 45.1329 150.451 45.1379 150.427C45.4825 148.825 45.9854 147.247 46.6508 145.717C46.8737 145.205 47.115 144.698 47.3742 144.197C47.3771 144.192 47.38 144.185 47.3829 144.18L52.4904 134.328L52.4154 130.892C52.2983 125.581 55.6838 120.99 60.6413 119.481L56.1133 118.221C52.6629 117.261 50.2183 114.214 50.0262 110.638L49.7854 106.184C49.5479 101.755 52.8158 97.9187 57.2267 97.4517L61.6667 96.9804V89.1029C61.6667 88.5804 61.9108 88.0871 62.3308 87.7733L75.5829 77.7717C76.4879 77.0896 77.23 76.2467 77.79 75.2633L80.0717 71.2837L65.2571 74.1908C64.7688 74.2837 64.2608 74.1583 63.8767 73.8425C63.4892 73.525 63.2679 73.0529 63.2679 72.555V67.9862C63.2679 63.4287 65.3025 59.1746 68.8537 56.3112L89.7262 39.4771C90.26 39.0458 91.0054 38.9871 91.6046 39.3304L106.217 47.7467C106.608 47.9712 107.06 48.025 107.5 47.9079C107.932 47.7858 108.294 47.5008 108.509 47.1054L114.087 38.0192L114.094 38.0079C129.225 40.1433 143.264 45.6679 155.424 53.7833C155.432 53.7829 155.44 53.7825 155.448 53.7821C148.522 49.1579 140.986 45.3737 132.988 42.5771C132.958 42.5667 132.929 42.5562 132.9 42.5462C132.361 42.3583 131.82 42.1754 131.277 41.9967C131.199 41.9708 131.121 41.9462 131.043 41.9208C129.493 41.4146 127.926 40.9467 126.344 40.515C126.129 40.4562 125.915 40.3979 125.699 40.3404C125.262 40.2246 124.824 40.1112 124.385 40.0008C124.118 39.9342 123.851 39.87 123.584 39.8054C122.942 39.65 122.298 39.5012 121.652 39.3583C121.264 39.2725 120.876 39.1858 120.486 39.1046C120.128 39.03 119.768 38.9604 119.409 38.8896C119.035 38.8158 118.66 38.7433 118.283 38.6738C117.94 38.6104 117.597 38.5479 117.253 38.4879C116.795 38.4083 116.336 38.3333 115.876 38.2596C115.613 38.2175 115.352 38.1729 115.089 38.1329C114.399 38.0283 113.705 37.9325 113.01 37.8421C112.738 37.8067 112.465 37.7746 112.191 37.7412C111.696 37.6808 111.2 37.6242 110.702 37.5713C110.433 37.5425 110.163 37.5138 109.893 37.4871C109.255 37.4242 108.616 37.3675 107.975 37.3167C107.864 37.3079 107.754 37.2967 107.643 37.2883C106.896 37.2317 106.146 37.1858 105.394 37.1458C105.164 37.1337 104.934 37.1242 104.703 37.1133C104.139 37.0871 103.573 37.0654 103.007 37.0487C102.776 37.0417 102.546 37.0346 102.315 37.0292C101.545 37.0117 100.774 37 100 37C44.7717 37 0 81.7717 0 137C0 192.228 44.7717 237 100 237C101.527 237 103.042 236.952 104.552 236.885C84.7075 223.636 69.8671 203.483 63.4692 179.859ZM47.1583 73.6437C48.125 72.0729 50.1758 71.58 51.745 72.5483L57.0737 75.82C58.2846 76.5637 58.89 77.9946 58.5842 79.3829L56.2275 89.9933C55.8825 91.5475 54.5021 92.6042 52.9754 92.6042C52.7346 92.6042 52.4938 92.5796 52.2496 92.5246C50.4525 92.1258 49.32 90.3454 49.7171 88.5483L51.5596 80.2575L48.2554 78.2296C46.6862 77.2671 46.1946 75.2129 47.1583 73.6437Z" fill="#0E94D7"/>
    <path d="M150.204 95.5264C150.124 95.5976 150.04 95.6664 149.951 95.731C150.04 95.6664 150.125 95.598 150.204 95.5264Z" fill="#00E389"/>
    <path d="M104.617 123.923L107.328 125.717L110.411 124.687C108.465 125.337 106.328 125.055 104.617 123.923Z" fill="#00E389"/>
    <path d="M127.868 100.207H127.87C128.583 100.207 129.277 99.9778 129.85 99.554L135.039 95.7178L129.85 99.554C129.277 99.9774 128.581 100.207 127.868 100.207Z" fill="#00E389"/>
    <path d="M185.047 113.405L187.168 121.337L166.432 114.748L198.545 124.953C198.779 125.024 199.021 125.02 199.256 124.99C197.768 112.56 193.996 100.833 188.379 90.2354L185.244 100.651C183.995 104.801 183.927 109.218 185.047 113.405Z" fill="#00E389"/>
    <path d="M137.656 157.183L137.291 157.731C134.818 161.439 130.655 163.666 126.198 163.666H87.1363C82.6784 163.666 78.5151 165.894 76.0426 169.604L69.7643 179.021L66.3388 179.632C63.7288 180.098 61.1076 179.853 58.708 179.006C60.228 179.544 61.8351 179.834 63.4697 179.859C64.4201 179.874 65.3788 179.806 66.3351 179.634L88.4901 175.679L93.6463 182.065C97.1393 186.388 101.726 189.728 106.915 191.724L109.167 192.589V206.502C109.167 208.016 109.714 210.736 110.84 214.818C112.263 219.971 115.623 224.251 120.3 226.874C123.34 228.579 126.693 229.447 130.082 229.447C131.941 229.447 133.812 229.186 135.651 228.657C136.149 228.516 136.553 228.149 136.742 227.669L151.335 190.781L170.866 172.38C171.126 172.136 171.299 171.815 171.364 171.465L173.311 160.736C173.402 160.23 173.255 159.711 172.913 159.326C172.568 158.942 172.067 158.752 171.556 158.775L166.823 159.099C163.743 159.312 160.824 158.312 158.558 156.426L144.182 154.289C141.63 153.908 139.088 155.036 137.656 157.183Z" fill="#00E389"/>
    <path d="M185.906 85.8398C186.046 86.074 186.184 86.3086 186.322 86.5436C186.184 86.3086 186.046 86.074 185.906 85.8398Z" fill="#00E389"/>
    <path d="M182.733 80.8604C182.818 80.9845 182.902 81.1087 182.986 81.2337C182.902 81.1091 182.818 80.9845 182.733 80.8604Z" fill="#00E389"/>
    <path d="M114.087 38.0191C114.145 38.0274 114.204 38.0303 114.262 38.0386C119.716 38.8182 125.028 40.0382 130.162 41.6603C130.534 41.7782 130.893 41.9224 131.263 42.0445C133.368 42.737 135.446 43.4861 137.486 44.312C138.167 44.5878 138.831 44.8957 139.504 45.1861C141.21 45.9211 142.898 46.6882 144.553 47.5136C145.316 47.8945 146.066 48.2961 146.818 48.6957C148.353 49.5116 149.867 50.362 151.353 51.2541C152.111 51.7091 152.864 52.1716 153.609 52.6457C154.184 53.0124 154.735 53.4132 155.303 53.7916C114.537 55.6782 80.1468 81.9657 66.4072 118.386L67.2201 118.232L71.8251 114.793C72.8114 114.056 73.5747 113.061 74.0297 111.917L76.9306 104.631C79.5443 102.211 83.3693 101.719 86.4876 103.367L95.5597 111.41C96.0772 111.871 96.8293 111.96 97.4414 111.638C98.0568 111.316 98.4051 110.647 98.3201 109.96L97.3793 102.54C97.4247 101.56 98.1801 101.174 98.408 101.08C98.636 100.984 99.443 100.725 100.169 101.391L111.097 111.392C111.53 111.788 112.138 111.928 112.7 111.762L128.968 106.934L120 109.596L119.154 108.092C117.694 105.495 118.201 102.237 120.381 100.207H118.61C116.767 100.207 115.276 98.7141 115.276 96.8732C115.276 95.0324 116.767 93.5399 118.61 93.5399H126.771L131.074 90.3561C132.555 89.2607 134.648 89.5766 135.736 91.0545C136.655 92.2961 136.581 93.9607 135.662 95.1128L140 93.6666H144.323L145.296 95.0011L136.763 83.2986C135.676 81.8111 136.005 79.7245 137.493 78.6403C138.98 77.5549 141.063 77.8849 142.148 79.3695L150.68 91.072C151.247 91.8482 151.426 92.7866 151.258 93.6611L157.884 91.8349C161.367 90.8749 164.311 88.5428 166.043 85.3724L174.35 70.1641C168.76 63.9486 162.401 58.4399 155.424 53.7832C143.264 45.6678 129.226 40.1436 114.094 38.0078L114.087 38.0191Z" fill="#00E389"/>
    <path d="M48.2554 78.2282L51.5596 80.2562L49.7171 88.547C49.32 90.3441 50.4529 92.1245 52.2496 92.5232C52.4938 92.5787 52.7346 92.6028 52.9754 92.6028C54.5021 92.6028 55.8825 91.5466 56.2275 89.992L58.5842 79.3816C58.89 77.9932 58.2846 76.5624 57.0738 75.8187L51.745 72.547C50.1759 71.5787 48.125 72.0716 47.1584 73.6424C46.1946 75.2124 46.6863 77.2666 48.2554 78.2282Z" fill="#00BBBB"/>
    <path d="M66.4069 118.387C80.1465 81.9662 114.536 55.6787 155.302 53.792C154.735 53.4141 154.184 53.0129 153.609 52.6462C152.864 52.1716 152.111 51.7091 151.353 51.2545C149.867 50.3624 148.353 49.512 146.817 48.6962C146.066 48.2966 145.316 47.8949 144.553 47.5141C142.898 46.6887 141.21 45.9216 139.504 45.1866C138.831 44.8962 138.167 44.5883 137.486 44.3124C135.446 43.4866 133.367 42.7374 131.263 42.0449C130.893 41.9229 130.534 41.7783 130.161 41.6608C125.028 40.0383 119.716 38.8183 114.261 38.0391C114.204 38.0308 114.145 38.0279 114.087 38.0195L108.509 47.1062C108.294 47.5016 107.932 47.7866 107.499 47.9087C107.06 48.0258 106.607 47.972 106.217 47.7474L91.6044 39.3312C91.0052 38.9879 90.2598 39.0462 89.726 39.4779L68.854 56.3116C65.3027 59.1745 63.2681 63.4291 63.2681 67.9866V72.5554C63.2681 73.0533 63.4894 73.5254 63.8769 73.8429C64.2611 74.1587 64.769 74.2841 65.2573 74.1912L80.0719 71.2841L77.7902 75.2637C77.2302 76.2466 76.4881 77.0899 75.5831 77.772L62.3311 87.7737C61.9111 88.0879 61.6669 88.5812 61.6669 89.1033V96.9808L57.2269 97.4529C52.8161 97.9199 49.5477 101.756 49.7856 106.185L50.0265 110.64C50.2186 114.215 52.6631 117.262 56.1136 118.222L60.6415 119.482L66.4069 118.387Z" fill="#00BBBB"/>
    <path d="M44.9297 159.843C44.4688 157.111 44.4638 154.315 44.9213 151.571C43.8867 157.771 45.2097 164.238 48.8217 169.615C48.6626 169.379 48.508 169.14 48.358 168.899C46.608 166.091 45.4638 163.01 44.9297 159.843Z" fill="#00BBBB"/>
    <path d="M44.9609 151.321C44.9789 151.22 45.0005 151.12 45.0193 151.02C45.0001 151.12 44.9789 151.22 44.9609 151.321Z" fill="#00BBBB"/>
    <path d="M45.1211 150.501C45.1261 150.476 45.1328 150.452 45.1378 150.428C45.1328 150.452 45.1261 150.477 45.1211 150.501Z" fill="#00BBBB"/>
    <path d="M51.2464 173.226L51.2468 173.227L48.8218 169.615L51.2464 173.226Z" fill="#FFEDB9"/>
    <path d="M46.6504 145.719C46.8733 145.207 47.1146 144.7 47.3737 144.199C47.1146 144.7 46.8733 145.207 46.6504 145.719Z" fill="#FFEDB9"/>
    <path d="M47.3832 144.18L47.3828 144.181L52.4907 134.329L47.3832 144.18Z" fill="#FFEDB9"/>
    <path d="M157.884 91.8347L151.259 93.6609L151.24 93.6664C151.105 94.3647 150.762 95.0255 150.204 95.5255C150.124 95.5972 150.04 95.6655 149.951 95.7301C149.359 96.1614 148.672 96.3697 147.992 96.3697C146.963 96.3697 145.948 95.8943 145.296 95.0009L144.323 93.6664H140L135.662 95.1122L135.553 95.1484C135.388 95.3434 135.253 95.5584 135.039 95.7168L129.85 99.553C129.277 99.9768 128.583 100.206 127.87 100.206H127.868H120.381C118.202 102.236 117.695 105.494 119.155 108.091L120 109.595L128.968 106.934C130.13 108.256 130.788 109.966 130.798 111.747C130.805 113.827 129.925 115.819 128.383 117.212L125.808 119.538L110.411 124.686L107.328 125.716L104.617 123.922L96.0579 118.256C93.0275 116.25 89.5313 115.207 85.9604 115.207C84.8925 115.207 83.8183 115.302 82.7508 115.491L67.2204 118.231L66.4075 118.386L60.6417 119.481L66.4338 118.381C62.2913 129.357 60 141.241 60 153.666C60 162.724 61.2308 171.489 63.4888 179.832C59.9175 179.781 56.4867 178.467 53.8154 176.136C55.2579 177.401 56.9188 178.373 58.7075 179.006C61.1071 179.853 63.7283 180.098 66.3383 179.632L69.7638 179.021L76.0421 169.603C78.515 165.894 82.6779 163.666 87.1358 163.666H126.198C130.655 163.666 134.817 161.439 137.29 157.731L137.655 157.183C139.087 155.036 141.629 153.908 144.182 154.288L158.558 156.425L133.333 123.666L139.382 125.683C141.955 126.54 144.205 128.162 145.833 130.332L161.265 150.908C162.396 152.416 164.551 152.687 166.02 151.506L175.556 143.837C178.525 141.638 180.276 138.163 180.276 134.468V134.462V125.406C180.276 124.871 180.019 124.368 179.586 124.056C179.15 123.738 178.597 123.653 178.085 123.824L174.378 125.051C173.024 125.499 171.591 125.361 170.348 124.658C169.105 123.953 168.245 122.799 167.929 121.404L166.432 114.747L187.168 121.336L185.046 113.404C183.926 109.217 183.995 104.801 185.244 100.65L188.379 90.2343L188.384 90.218C187.725 88.9751 187.031 87.7534 186.322 86.5422C186.184 86.3072 186.045 86.0722 185.906 85.8384C184.973 84.2747 184 82.7393 182.986 81.2322C182.902 81.1076 182.818 80.9834 182.733 80.8589C180.18 77.0997 177.388 73.5168 174.358 70.1484L174.35 70.1626L166.043 85.3709C164.311 88.5426 161.367 90.8751 157.884 91.8347Z" fill="#FFEDB9"/>
    <path d="M53.1572 175.525C53.2893 175.656 53.4231 175.785 53.5593 175.91C53.4226 175.785 53.2897 175.656 53.1572 175.525Z" fill="#FFEDB9"/>
    <path d="M51.8477 174.055C51.9227 174.151 52.0018 174.244 52.0793 174.338C52.0018 174.243 51.9227 174.151 51.8477 174.055Z" fill="#FFEDB9"/>
    <path d="M52.4893 174.824C52.593 174.941 52.7001 175.055 52.8072 175.168C52.6997 175.055 52.593 174.941 52.4893 174.824Z" fill="#FFEDB9"/>
    <path d="M44.9297 159.843C45.4639 163.011 46.608 166.091 48.358 168.899C46.608 166.091 45.4639 163.011 44.9297 159.843Z" fill="#FFEDB9"/>
    <path d="M63.4887 179.832C61.2308 171.489 60 162.725 60 153.667C60 141.241 62.2912 129.357 66.4333 118.382L60.6412 119.482C55.6837 120.991 52.2983 125.583 52.4154 130.893L52.4904 134.329L47.3829 144.181C47.3799 144.187 47.377 144.193 47.3741 144.199C47.1149 144.7 46.8737 145.206 46.6508 145.719C45.9854 147.248 45.4824 148.826 45.1379 150.428C45.1324 150.453 45.1262 150.477 45.1212 150.501C45.0845 150.674 45.0529 150.847 45.0199 151.021C45.0008 151.121 44.9791 151.221 44.9616 151.322C44.947 151.405 44.9354 151.488 44.9216 151.572C44.4641 154.316 44.4695 157.112 44.9299 159.843C45.4641 163.011 46.6083 166.091 48.3583 168.899C48.5083 169.14 48.6629 169.379 48.822 169.616L51.247 173.227C51.4383 173.512 51.6399 173.787 51.8483 174.055C51.9233 174.152 52.0024 174.244 52.0799 174.339C52.2141 174.503 52.3495 174.666 52.4899 174.824C52.5941 174.941 52.7004 175.055 52.8079 175.168C52.9229 175.289 53.0391 175.408 53.1579 175.526C53.2904 175.656 53.4233 175.785 53.56 175.91C53.6441 175.987 53.7304 176.061 53.8158 176.136C56.4866 178.467 59.9175 179.781 63.4887 179.832Z" fill="#FFD586"/>
</svg>