<svg width="194" height="194" viewBox="0 0 194 194" fill="none" xmlns="http://www.w3.org/2000/svg">
    <g clip-path="url(#clip0)">
        <path d="M48.2438 127.384L40.7969 107.057C40.6201 106.575 40.6068 106.047 40.7593 105.556C40.9118 105.065 41.2215 104.638 41.6407 104.34L61.7141 90.0872C61.884 89.9666 62.0691 89.8692 62.2647 89.7975L83.9771 81.8428L94.4586 110.452L48.2438 127.384Z" fill="#EEAC13"/>
        <path d="M66.6557 123.134L70.4306 114.994C70.5601 114.715 70.7433 114.464 70.9698 114.255C71.1962 114.047 71.4616 113.885 71.7506 113.779L112.652 98.7939L119.103 116.4L70.687 134.137L66.6557 123.134Z" fill="#8C410B"/>
        <path d="M153.659 81.2746L148.928 68.3617C148.65 67.6017 148.179 66.9267 147.563 66.4025C146.946 65.8783 146.204 65.5227 145.409 65.3704L135.868 63.5432C135.034 63.3834 134.172 63.4533 133.374 63.7456L116.119 70.0671C115.251 70.3855 114.495 70.9539 113.949 71.7008L106.289 82.1711C105.833 82.7939 105.538 83.5196 105.431 84.2837C105.323 85.0478 105.405 85.8267 105.671 86.5513L109.645 97.4L153.659 81.2746Z" fill="#EEAC13"/>
        <path d="M149.979 132.544C134.178 138.333 116.677 130.217 110.888 114.417C105.099 98.6165 113.215 81.115 129.016 75.3262C144.816 69.5375 162.318 77.6535 168.107 93.4539C173.895 109.254 165.779 126.756 149.979 132.544Z" fill="#EFE8E0"/>
        <path d="M128.209 73.1257C134.303 70.8932 140.922 70.5177 147.229 72.0469C153.536 73.5761 159.247 76.9411 163.642 81.7166C168.036 86.492 170.916 92.4633 171.917 98.8753C172.918 105.287 171.995 111.852 169.264 117.74C166.534 123.627 162.12 128.573 156.579 131.951C151.038 135.33 144.619 136.989 138.135 136.72C131.651 136.45 125.392 134.264 120.151 130.438C114.909 126.612 110.92 121.317 108.687 115.223C105.704 107.051 106.083 98.0299 109.743 90.1377C113.403 82.2456 120.044 76.1275 128.209 73.1257ZM145.141 119.34C148.188 118.224 150.835 116.23 152.748 113.609C154.661 110.988 155.754 107.859 155.889 104.616C156.024 101.374 155.194 98.1652 153.505 95.3947C151.816 92.6242 149.343 90.4169 146.399 89.0518C143.455 87.6867 140.173 87.2251 136.967 87.7255C133.761 88.2259 130.775 89.6658 128.387 91.863C126 94.0603 124.317 96.9162 123.553 100.07C122.788 103.223 122.976 106.533 124.092 109.579C125.593 113.662 128.652 116.982 132.598 118.812C136.544 120.642 141.055 120.832 145.141 119.34Z" fill="#544D4C"/>
        <path d="M70.7534 161.571C59.8147 165.579 47.6982 159.96 43.6906 149.021C39.683 138.083 45.3018 125.966 56.2405 121.959C67.1793 117.951 79.2957 123.57 83.3033 134.508C87.3109 145.447 81.6921 157.564 70.7534 161.571Z" fill="#EFE8E0"/>
        <path d="M55.4339 119.757C59.7865 118.162 64.5142 117.894 69.0191 118.986C73.5241 120.079 77.604 122.482 80.743 125.893C83.8819 129.304 85.9388 133.57 86.6537 138.15C87.3686 142.73 86.7092 147.419 84.7591 151.624C82.8089 155.83 79.6556 159.362 75.6977 161.775C71.7399 164.188 67.1553 165.374 62.5238 165.181C57.8923 164.989 53.4219 163.428 49.6778 160.694C45.9337 157.961 43.0842 154.179 41.4896 149.827C39.3588 143.99 39.6303 137.546 42.2444 131.909C44.8586 126.272 49.6019 121.901 55.4339 119.757ZM66.7217 150.567C68.4627 149.929 69.9755 148.789 71.0687 147.292C72.162 145.794 72.7865 144.006 72.8635 142.153C72.9405 140.301 72.4663 138.467 71.5011 136.884C70.5358 135.3 69.1228 134.039 67.4406 133.259C65.7585 132.479 63.8828 132.215 62.0508 132.501C60.2188 132.787 58.5127 133.61 57.1483 134.866C55.7839 136.121 54.8225 137.753 54.3856 139.555C53.9487 141.357 54.0559 143.248 54.6938 144.989C55.5514 147.322 57.2995 149.219 59.5544 150.265C61.8093 151.311 64.3869 151.419 66.7217 150.567Z" fill="#544D4C"/>
        <path d="M140.303 106.136C139.088 106.582 137.742 105.957 137.296 104.742C136.851 103.527 137.475 102.18 138.691 101.735C139.906 101.29 141.253 101.914 141.698 103.129C142.143 104.345 141.519 105.691 140.303 106.136Z" fill="#544D4C"/>
        <path d="M77.0049 96.8773L81.4063 95.2648L70.9248 66.6556C70.8189 66.3666 70.6572 66.1013 70.4487 65.8748C70.2403 65.6484 69.9893 65.4652 69.71 65.3359L63.696 62.547L61.7242 66.799L66.8572 69.1794L77.0049 96.8773Z" fill="#544D4C"/>
        <path d="M52.7973 105.747L41.7938 109.778L45.0189 118.581L52.9102 115.69C53.4938 115.476 53.9686 115.039 54.2301 114.475L56.2022 110.223C56.3317 109.943 56.4049 109.641 56.4177 109.334C56.4304 109.026 56.3825 108.719 56.2766 108.43L55.8043 107.141C55.5905 106.557 55.1535 106.083 54.5896 105.821C54.0257 105.56 53.381 105.533 52.7973 105.747Z" fill="#FFEAAA"/>
        <path d="M89.8482 75.4308L93.0453 68.5359L89.1576 66.7328L91.1293 62.4809L103.157 68.0587L101.185 72.3105L97.2976 70.5078L94.1 77.4025L89.8482 75.4308Z" fill="#8F8781"/>
        <path d="M89.6213 97.2482L96.4222 79.0388C96.6288 78.4857 96.619 77.8749 96.3947 77.3287C96.1705 76.7824 95.7483 76.341 95.2126 76.0925L89.0414 73.2307C88.7622 73.1013 88.4602 73.028 88.1526 73.0153C87.8451 73.0025 87.5381 73.0504 87.2491 73.1563L81.5586 75.2411L89.6213 97.2482Z" fill="#544D4C"/>
        <path d="M99.8184 91.0156L88.8148 95.047L90.4274 99.4484L101.431 95.417L99.8184 91.0156Z" fill="#544D4C"/>
        <path d="M64.3029 143.965C63.0875 144.41 61.7413 143.785 61.296 142.57C60.8507 141.355 61.475 140.008 62.6904 139.563C63.9058 139.118 65.2521 139.742 65.6974 140.958C66.1427 142.173 65.5184 143.519 64.3029 143.965Z" fill="#544D4C"/>
        <path d="M90.6453 106.857L95.0467 105.244L82.4803 70.9445L88.6354 57.6715L109.731 49.9427L116.988 69.749L121.389 68.1364L113.326 46.1294C113.221 45.8403 113.059 45.5749 112.85 45.3483C112.642 45.1217 112.391 44.9384 112.112 44.8089C111.833 44.6794 111.531 44.6062 111.223 44.5935C110.915 44.5809 110.608 44.6289 110.319 44.735L86.1116 53.6039C85.8226 53.7098 85.5573 53.8715 85.3308 54.08C85.1044 54.2884 84.9212 54.5395 84.7918 54.8187L78.2282 68.9726C77.7087 70.1012 77.6551 71.3891 78.0788 72.557L90.6453 106.857Z" fill="#8F8781"/>
        <path d="M84.3594 46.7575L112.302 36.5201C112.886 36.3063 113.531 36.3331 114.095 36.5946C114.658 36.8561 115.095 37.3309 115.309 37.9146L117.728 44.5167L80.3161 58.2233L79.135 54.9996C79.0023 54.6373 78.961 54.2479 79.015 53.8658C79.0689 53.4838 79.2163 53.1209 79.4441 52.8095L83.2741 47.5744C83.5473 47.2009 83.9249 46.9167 84.3594 46.7575Z" fill="#EEAC13"/>
        <path d="M77.9168 96.5441L88.0088 92.8467L95.2652 112.653C95.4791 113.237 95.4523 113.881 95.1908 114.445C94.9293 115.009 94.4544 115.446 93.8708 115.66L82.8673 119.691C82.2836 119.905 81.6389 119.878 81.075 119.617C80.5111 119.355 80.0741 118.881 79.8603 118.297L74.5504 103.804C74.3365 103.22 74.3633 102.575 74.6248 102.011L76.5969 97.7588C76.7263 97.4795 76.9096 97.2285 77.136 97.0201C77.3625 96.8117 77.6278 96.6499 77.9168 96.5441Z" fill="#C47010"/>
    </g>
    <defs>
        <clipPath id="clip0">
            <rect width="150" height="150" transform="matrix(-0.938967 0.344008 0.344008 0.938967 141.651 0.806641)" fill="white"/>
        </clipPath>
    </defs>
</svg>