<svg width="1080" height="541" viewBox="0 0 1080 541" fill="none" xmlns="http://www.w3.org/2000/svg">
    <path d="M1097 0L2196.85 405.75H-2.85229L1097 0Z" fill="url(#paint0_linear)"/>
    <g clip-path="url(#clip0)">
        <path d="M617.244 132.384L609.797 112.057C609.62 111.575 609.607 111.047 609.759 110.556C609.912 110.065 610.222 109.638 610.641 109.34L630.714 95.0872C630.884 94.9666 631.069 94.8692 631.265 94.7975L652.977 86.8428L663.459 115.452L617.244 132.384Z" fill="#EEAC13"/>
        <path d="M635.656 128.134L639.431 119.994C639.56 119.715 639.743 119.464 639.97 119.255C640.196 119.047 640.462 118.885 640.751 118.779L681.652 103.794L688.103 121.4L639.687 139.137L635.656 128.134Z" fill="#8C410B"/>
        <path d="M722.659 86.2746L717.928 73.3617C717.65 72.6017 717.179 71.9267 716.563 71.4025C715.946 70.8783 715.204 70.5227 714.409 70.3704L704.868 68.5432C704.034 68.3834 703.172 68.4533 702.374 68.7456L685.119 75.0671C684.251 75.3855 683.495 75.9539 682.949 76.7008L675.289 87.1711C674.833 87.7939 674.538 88.5196 674.431 89.2837C674.323 90.0478 674.405 90.8267 674.671 91.5513L678.645 102.4L722.659 86.2746Z" fill="#EEAC13"/>
        <path d="M718.979 137.544C703.178 143.333 685.677 135.217 679.888 119.417C674.099 103.616 682.215 86.115 698.016 80.3262C713.816 74.5375 731.318 82.6535 737.107 98.4539C742.895 114.254 734.779 131.756 718.979 137.544Z" fill="#EFE8E0"/>
        <path d="M697.209 78.1257C703.303 75.8932 709.922 75.5177 716.229 77.0469C722.536 78.5761 728.247 81.9411 732.642 86.7166C737.036 91.492 739.916 97.4633 740.917 103.875C741.918 110.287 740.995 116.852 738.264 122.74C735.534 128.627 731.12 133.573 725.579 136.951C720.038 140.33 713.619 141.989 707.135 141.72C700.651 141.45 694.392 139.264 689.151 135.438C683.909 131.612 679.92 126.317 677.687 120.223C674.704 112.051 675.083 103.03 678.743 95.1377C682.403 87.2456 689.044 81.1275 697.209 78.1257ZM714.141 124.34C717.188 123.224 719.835 121.23 721.748 118.609C723.661 115.988 724.754 112.859 724.889 109.616C725.024 106.374 724.194 103.165 722.505 100.395C720.816 97.6242 718.343 95.4169 715.399 94.0518C712.455 92.6867 709.173 92.2251 705.967 92.7255C702.761 93.2259 699.775 94.6658 697.387 96.863C695 99.0603 693.317 101.916 692.553 105.07C691.788 108.223 691.976 111.533 693.092 114.579C694.593 118.662 697.652 121.982 701.598 123.812C705.544 125.642 710.055 125.832 714.141 124.34Z" fill="#544D4C"/>
        <path d="M639.753 166.571C628.815 170.579 616.698 164.96 612.691 154.021C608.683 143.083 614.302 130.966 625.241 126.959C636.179 122.951 648.296 128.57 652.303 139.508C656.311 150.447 650.692 162.564 639.753 166.571Z" fill="#EFE8E0"/>
        <path d="M624.434 124.757C628.786 123.162 633.514 122.894 638.019 123.986C642.524 125.079 646.604 127.482 649.743 130.893C652.882 134.304 654.939 138.57 655.654 143.15C656.369 147.73 655.709 152.419 653.759 156.624C651.809 160.83 648.656 164.362 644.698 166.775C640.74 169.188 636.155 170.374 631.524 170.181C626.892 169.989 622.422 168.428 618.678 165.694C614.934 162.961 612.084 159.179 610.49 154.827C608.359 148.99 608.63 142.546 611.244 136.909C613.859 131.272 618.602 126.901 624.434 124.757ZM635.722 155.567C637.463 154.929 638.975 153.789 640.069 152.292C641.162 150.794 641.787 149.006 641.864 147.153C641.94 145.301 641.466 143.467 640.501 141.884C639.536 140.3 638.123 139.039 636.441 138.259C634.759 137.479 632.883 137.215 631.051 137.501C629.219 137.787 627.513 138.61 626.148 139.866C624.784 141.121 623.822 142.753 623.386 144.555C622.949 146.357 623.056 148.248 623.694 149.989C624.551 152.322 626.299 154.219 628.554 155.265C630.809 156.311 633.387 156.419 635.722 155.567Z" fill="#544D4C"/>
        <path d="M709.303 111.136C708.088 111.582 706.742 110.957 706.296 109.742C705.851 108.527 706.475 107.18 707.691 106.735C708.906 106.29 710.253 106.914 710.698 108.129C711.143 109.345 710.519 110.691 709.303 111.136Z" fill="#544D4C"/>
        <path d="M646.005 101.877L650.406 100.265L639.925 71.6556C639.819 71.3666 639.657 71.1013 639.449 70.8748C639.24 70.6484 638.989 70.4652 638.71 70.3359L632.696 67.547L630.724 71.799L635.857 74.1794L646.005 101.877Z" fill="#544D4C"/>
        <path d="M621.797 110.747L610.794 114.778L614.019 123.581L621.91 120.69C622.494 120.476 622.969 120.039 623.23 119.475L625.202 115.223C625.332 114.943 625.405 114.641 625.418 114.334C625.43 114.026 625.382 113.719 625.277 113.43L624.804 112.141C624.59 111.557 624.154 111.083 623.59 110.821C623.026 110.56 622.381 110.533 621.797 110.747Z" fill="#FFEAAA"/>
        <path d="M658.848 80.4308L662.045 73.5359L658.158 71.7328L660.129 67.4809L672.157 73.0587L670.185 77.3105L666.298 75.5078L663.1 82.4025L658.848 80.4308Z" fill="#8F8781"/>
        <path d="M658.621 102.248L665.422 84.0388C665.629 83.4857 665.619 82.8749 665.395 82.3287C665.17 81.7824 664.748 81.341 664.213 81.0925L658.041 78.2307C657.762 78.1013 657.46 78.028 657.153 78.0153C656.845 78.0025 656.538 78.0504 656.249 78.1563L650.559 80.2411L658.621 102.248Z" fill="#544D4C"/>
        <path d="M668.818 96.0156L657.815 100.047L659.427 104.448L670.431 100.417L668.818 96.0156Z" fill="#544D4C"/>
        <path d="M633.303 148.965C632.088 149.41 630.741 148.785 630.296 147.57C629.851 146.355 630.475 145.008 631.69 144.563C632.906 144.118 634.252 144.742 634.697 145.958C635.143 147.173 634.518 148.519 633.303 148.965Z" fill="#544D4C"/>
        <path d="M659.645 111.857L664.047 110.244L651.48 75.9445L657.635 62.6715L678.731 54.9427L685.988 74.749L690.389 73.1364L682.326 51.1294C682.221 50.8403 682.059 50.5749 681.85 50.3483C681.642 50.1217 681.391 49.9384 681.112 49.8089C680.833 49.6794 680.531 49.6062 680.223 49.5935C679.915 49.5809 679.608 49.6289 679.319 49.735L655.112 58.6039C654.823 58.7098 654.557 58.8715 654.331 59.08C654.104 59.2884 653.921 59.5395 653.792 59.8187L647.228 73.9726C646.709 75.1012 646.655 76.3891 647.079 77.557L659.645 111.857Z" fill="#8F8781"/>
        <path d="M653.359 51.7575L681.302 41.5201C681.886 41.3063 682.531 41.3331 683.095 41.5946C683.658 41.8561 684.095 42.3309 684.309 42.9146L686.728 49.5167L649.316 63.2233L648.135 59.9996C648.002 59.6373 647.961 59.2479 648.015 58.8658C648.069 58.4838 648.216 58.1209 648.444 57.8095L652.274 52.5744C652.547 52.2009 652.925 51.9167 653.359 51.7575Z" fill="#EEAC13"/>
        <path d="M646.917 101.544L657.009 97.8467L664.265 117.653C664.479 118.237 664.452 118.881 664.191 119.445C663.929 120.009 663.454 120.446 662.871 120.66L651.867 124.691C651.284 124.905 650.639 124.878 650.075 124.617C649.511 124.355 649.074 123.881 648.86 123.297L643.55 108.804C643.337 108.22 643.363 107.575 643.625 107.011L645.597 102.759C645.726 102.48 645.91 102.229 646.136 102.02C646.363 101.812 646.628 101.65 646.917 101.544Z" fill="#C47010"/>
    </g>
    <rect y="405" width="1130" height="136" fill="url(#paint1_linear)"/>
    <defs>
        <linearGradient id="paint0_linear" x1="1077" y1="403" x2="18.5943" y2="393.144" gradientUnits="userSpaceOnUse">
            <stop stop-color="#5CC04A"/>
            <stop offset="1" stop-color="#8FDD3D"/>
        </linearGradient>
        <linearGradient id="paint1_linear" x1="0" y1="405" x2="1070.5" y2="405" gradientUnits="userSpaceOnUse">
            <stop stop-color="#8FDD3D"/>
            <stop offset="1" stop-color="#5CC04A"/>
        </linearGradient>
        <clipPath id="clip0">
            <rect width="150" height="150" transform="matrix(-0.938967 0.344008 0.344008 0.938967 710.651 5.80664)" fill="white"/>
        </clipPath>
    </defs>
</svg>