<svg width="50" height="50" viewBox="0 0 176 176" fill="none" xmlns="http://www.w3.org/2000/svg">
    <g clip-path="url(#clip0)">
        <path d="M173.96 89.8802C173.96 137.443 135.403 176 87.8389 176C40.2765 176 1.71875 137.443 1.71875 89.8802C1.71875 42.3165 40.2765 3.75879 87.8389 3.75879C135.403 3.75879 173.96 42.3165 173.96 89.8802Z" fill="#5CC04A"/>
        <path d="M139.793 132.639C139.055 129.924 138.794 127.099 139.024 124.294L140.999 104.363C141.67 96.2354 140.431 88.0914 136.832 80.7733C127.536 61.8617 129.669 60.4894 129.38 41.7214C129.38 37.8878 126.273 34.7793 122.438 34.7793C118.604 34.7793 115.496 37.8878 115.496 41.7214C115.496 118.045 115.638 112.444 115.167 114.682V124.677C115.167 133.097 108.316 139.948 99.8954 139.948C94.3027 139.948 75.0165 139.948 61.8936 139.948C67.7319 148.066 75.7188 154.424 84.9879 158.274C85.0443 158.298 85.1021 158.321 85.1598 158.347C92.3208 161.371 97.3092 167.839 98.6453 175.327C116.579 173.082 132.799 165.322 145.554 153.799L139.793 132.639Z" fill="#F9D6BF"/>
        <path d="M36.109 35.022L33.9942 33.0629C30.7353 30.0417 25.5965 30.2377 22.5766 33.498C19.5567 36.7569 19.7527 41.8957 23.0116 44.9156L36.109 57.0516V35.022Z" fill="#F9D6BF"/>
        <path d="M27.3085 38.8428C25.3091 36.9897 24.4685 34.3418 24.8096 31.8174C23.9932 32.235 23.2332 32.7896 22.5766 33.4985C19.5567 36.7574 19.7527 41.8962 23.0116 44.9161L36.109 57.0521V46.9974L27.3085 38.8428Z" fill="#EFC1A8"/>
        <path d="M100.224 0C94.9579 0 56.2404 0 51.021 0C42.6005 0 35.751 6.85083 35.751 15.2714V125.004C35.751 133.425 42.6005 140.276 51.021 140.276H100.224C108.645 140.276 115.496 133.426 115.496 125.004V15.2714C115.496 6.85083 108.645 0 100.224 0V0Z" fill="#494970"/>
        <path d="M54.4854 125.004V15.2714C54.4854 6.85083 61.3348 0 69.7554 0C60.9535 0 53.1641 0 51.021 0C42.6005 0 35.751 6.85083 35.751 15.2714V125.004C35.751 133.425 42.6005 140.276 51.021 140.276H69.7554C61.3348 140.276 54.4854 133.425 54.4854 125.004V125.004Z" fill="#3A3A60"/>
        <path d="M107.034 125.004C107.034 128.767 103.986 131.815 100.225 131.815C95.0161 131.815 56.2865 131.815 51.0215 131.815C47.2604 131.815 44.2109 128.765 44.2109 125.004C44.2109 121.537 44.2109 18.803 44.2109 15.2715C44.2109 11.5104 47.2604 8.46094 51.0215 8.46094H54.7732C56.1818 8.46094 57.3218 9.60229 57.3218 11.0095V12.6262C57.3218 14.7935 59.0956 16.5673 61.2642 16.5673H89.9821C92.1493 16.5673 93.9231 14.7935 93.9231 12.6262V11.0095C93.9231 9.60229 95.0645 8.46094 96.4717 8.46094H100.225C103.986 8.46094 107.034 11.5104 107.034 15.2715V125.004Z" fill="#E2E9F2"/>
        <path d="M54.4858 125.004V15.2715C54.4858 12.9404 55.0122 10.7302 55.9508 8.75098C55.599 8.56702 55.1989 8.46094 54.7745 8.46094H51.0215C47.2604 8.46094 44.2109 11.5104 44.2109 15.2715V125.004C44.2109 128.767 47.2604 131.815 51.0215 131.815H56.0931C55.0659 129.763 54.4858 127.451 54.4858 125.004Z" fill="#C7D6E5"/>
        <path d="M84.2793 10.9271H75.8427C74.4811 10.9271 73.376 9.82202 73.376 8.46045C73.376 7.09888 74.4811 5.99512 75.8427 5.99512H84.2793C85.6422 5.99512 86.746 7.09888 86.746 8.46045C86.746 9.82202 85.6422 10.9271 84.2793 10.9271Z" fill="#5D5D84"/>
        <path d="M67.1893 10.9258C65.8103 10.9258 64.7227 9.79654 64.7227 8.46048C64.7227 7.23721 65.6223 6.24759 66.7086 6.04349C67.0242 5.97769 67.3531 5.97769 67.6714 6.04349C68.7805 6.25027 69.6547 7.26004 69.6547 8.46048C69.6547 9.80728 68.5643 10.9258 67.1893 10.9258Z" fill="#5D5D84"/>
        <path d="M47.8659 77.6334C45.2099 80.5002 40.7304 80.6721 37.8623 78.0134L26.0042 67.0268C23.1361 64.3695 22.9655 59.89 25.6229 57.0218C28.2802 54.1536 32.7597 53.9831 35.6265 56.6405L47.4859 67.6284C50.3527 70.2857 50.5246 74.7652 47.8659 77.6334Z" fill="#F9D6BF"/>
        <path d="M42.7406 73.0204L30.8825 62.0325C28.8993 60.1956 28.2077 57.4858 28.8469 55.042C27.6518 55.3871 26.5306 56.0437 25.6229 57.0226C22.9655 59.8907 23.1361 64.3702 26.0042 67.0276L37.8623 78.0155C40.7304 80.6729 45.2086 80.5023 47.8659 77.6342C48.6864 76.7493 49.2342 75.7113 49.5202 74.621C47.2147 75.2856 44.6285 74.77 42.7406 73.0204Z" fill="#EFC1A8"/>
        <path d="M139.048 128.523C125.929 150.063 100.458 160.065 76.5352 153.844C79.2032 155.559 82.0298 157.045 84.9866 158.273C85.0443 158.297 85.1021 158.321 85.1584 158.345C92.3208 161.37 97.3079 167.839 98.6439 175.327C116.579 173.082 132.799 165.322 145.552 153.797L139.793 132.639C139.427 131.29 139.177 129.912 139.048 128.523V128.523Z" fill="#EFC1A8"/>
        <path d="M47.8659 116.253C45.2099 119.121 40.7304 119.292 37.8623 116.634L26.0042 105.646C23.1361 102.989 22.9655 98.5096 25.6229 95.6415C28.2802 92.7746 32.7597 92.6028 35.6265 95.2601L47.4859 106.248C50.3527 108.905 50.5246 113.385 47.8659 116.253V116.253Z" fill="#F9D6BF"/>
        <path d="M42.7406 111.64L30.8825 100.652C28.8993 98.8147 28.2077 96.105 28.8469 93.6611C27.6518 94.0062 26.5306 94.6628 25.6229 95.6417C22.9655 98.5099 23.1361 102.989 26.0042 105.647L37.8623 116.635C40.7304 119.292 45.2086 119.121 47.8659 116.253C48.6864 115.368 49.2342 114.33 49.5202 113.24C47.2147 113.905 44.6285 113.389 42.7406 111.64V111.64Z" fill="#EFC1A8"/>
        <path d="M47.8659 96.9426C45.2099 99.8107 40.7304 99.9813 37.8623 97.3239L26.0042 86.336C23.1361 83.68 22.9655 79.2005 25.6229 76.3324C28.2802 73.4642 32.7597 73.2937 35.6265 75.951L47.4859 86.9389C50.3527 89.5963 50.5246 94.0744 47.8659 96.9426Z" fill="#F9D6BF"/>
        <path d="M42.7406 92.3303L30.8825 81.3424C28.8993 79.5042 28.2077 76.7958 28.8469 74.3506C27.6518 74.6957 26.5293 75.3536 25.6229 76.3325C22.9655 79.2007 23.1361 83.6788 26.0042 86.3362L37.8623 97.3241C40.7304 99.9815 45.2086 99.8109 47.8659 96.9428C48.6864 96.0592 49.2342 95.0199 49.5202 93.9296C47.2147 94.5956 44.6285 94.08 42.7406 92.3303Z" fill="#EFC1A8"/>
        <path d="M67.9443 122.472C66.4834 122.472 65.3662 121.272 65.3662 119.897C65.3662 118.473 66.5237 117.319 67.9443 117.319C69.3717 117.319 70.5225 118.473 70.5225 119.897C70.5225 121.319 69.3677 122.472 67.9443 122.472Z" fill="#C7D6E5"/>
        <path d="M75.624 122.471C74.1846 122.471 73.0459 121.303 73.0459 119.897C73.0459 118.691 73.8784 117.624 75.1191 117.368C76.6687 117.056 78.2021 118.232 78.2021 119.897C78.2021 121.253 77.1024 122.471 75.624 122.471Z" fill="#C7D6E5"/>
        <path d="M83.3008 122.471C81.8748 122.471 80.7227 121.311 80.7227 119.897C80.7227 118.287 82.189 117.049 83.8057 117.368C85.0679 117.635 85.8789 118.712 85.8789 119.897C85.8789 121.314 84.7255 122.471 83.3008 122.471Z" fill="#C7D6E5"/>
        <path d="M100.225 8.46094H96.473C95.0658 8.46094 93.9244 9.60229 93.9244 11.0095V12.6262C93.9244 14.7935 92.1493 16.5686 89.9821 16.5686C84.0779 16.5686 67.171 16.5686 61.2642 16.5686C59.0969 16.5686 57.3231 14.7935 57.3231 12.6262V11.0095C57.3231 9.60229 56.1818 8.46094 54.7745 8.46094H51.0215C47.2604 8.46094 44.2109 11.5104 44.2109 15.2715V26.9214C53.4935 24.4359 67.8424 23.1576 83.7999 31.0249C91.4766 34.8102 99.3519 37.0754 107.035 37.3776C107.035 29.662 107.035 20.2062 107.035 15.2715C107.034 11.5104 103.986 8.46094 100.225 8.46094Z" fill="#FAD964"/>
        <path d="M80.6338 29.5746C81.6812 30.019 82.7379 30.5011 83.8 31.0248C91.4767 34.8101 99.3521 37.0753 107.035 37.3774C107.035 32.3367 107.035 26.5547 107.035 21.7744C99.3521 22.0752 91.4767 24.3418 83.8 28.1257C82.7366 28.6508 81.6812 29.1301 80.6338 29.5746Z" fill="#FAB941"/>
        <path d="M54.4858 15.2715C54.4858 12.9404 55.0122 10.7302 55.9508 8.75098C55.5842 8.55896 55.1586 8.46094 54.7745 8.46094H51.0215C47.2604 8.46094 44.2109 11.5104 44.2109 15.2715V26.9214C47.161 26.1318 50.624 25.4645 54.4858 25.1744V15.2715Z" fill="#FAB941"/>
        <path d="M97.3059 59.9443H53.9437C51.422 59.9443 49.377 61.988 49.377 64.5111C49.377 67.0328 51.422 69.0765 53.9437 69.0765H97.3059C99.8276 69.0765 101.873 67.0328 101.873 64.5111C101.871 61.988 99.8276 59.9443 97.3059 59.9443Z" fill="#BC4C2E"/>
        <path d="M64.6913 64.5111C64.6913 61.988 66.7363 59.9443 69.2581 59.9443H53.9437C51.4207 59.9443 49.377 61.988 49.377 64.5111C49.377 67.0328 51.4207 69.0765 53.9437 69.0765H69.2581C66.7363 69.0765 64.6913 67.0328 64.6913 64.5111Z" fill="#AB3829"/>
        <path d="M97.1654 76.0107H54.0812C53.0231 76.0107 52.165 76.8701 52.165 77.9282V81.1334C52.165 85.9634 56.0806 89.8802 60.9105 89.8802H90.3361C95.166 89.8802 99.0815 85.9634 99.0815 81.1334V77.9282C99.0829 76.8701 98.2235 76.0107 97.1654 76.0107Z" fill="#E6AC6D"/>
        <path d="M97.3453 76.0103H53.9026C52.9425 76.0103 52.165 75.2328 52.165 74.274V70.8137C52.165 69.855 52.9425 69.0762 53.9026 69.0762H97.3453C98.3054 69.0762 99.0829 69.855 99.0829 70.8137V74.274C99.0829 75.2328 98.3054 76.0103 97.3453 76.0103Z" fill="#5CC04A"/>
        <path d="M66.5314 74.274V70.8137C66.5314 69.855 67.3088 69.0762 68.2676 69.0762H53.9026C52.9425 69.0762 52.165 69.855 52.165 70.8137V74.274C52.165 75.2328 52.9425 76.0116 53.9026 76.0116H68.2676C67.3088 76.0103 66.5314 75.2328 66.5314 74.274Z" fill="#D13044"/>
        <path d="M52.165 52.8605C52.165 46.1238 57.6261 40.6641 64.3615 40.6641H86.8851C93.6218 40.6641 99.0815 46.1238 99.0815 52.8605C99.0815 53.7843 98.3336 54.5322 97.4111 54.5322H53.8354C52.913 54.5322 52.165 53.7843 52.165 52.8605V52.8605Z" fill="#E6AC6D"/>
        <path d="M66.4401 81.1334V77.9282C66.4401 76.8701 67.2981 76.0107 68.3575 76.0107H54.0812C53.0231 76.0107 52.165 76.8701 52.165 77.9282V81.1334C52.165 85.9634 56.0806 89.8802 60.9105 89.8802H75.1855C70.3556 89.8802 66.4401 85.9634 66.4401 81.1334Z" fill="#CE8A4D"/>
        <path d="M66.4401 52.8605C66.4401 46.1238 71.9011 40.6641 78.6378 40.6641H64.3615C57.6261 40.6641 52.165 46.1238 52.165 52.8605C52.165 53.7843 52.913 54.5322 53.8354 54.5322H68.1118C67.188 54.5322 66.4401 53.7843 66.4401 52.8605Z" fill="#CE8A4D"/>
        <path d="M97.3208 54.5332H53.9277C53.682 55.1106 53.5289 55.7471 53.4913 56.4292C53.2322 61.2269 58.6758 64.083 62.4624 61.282C62.9203 60.9423 63.5527 60.9423 64.012 61.282C65.9966 62.7496 68.7036 62.7523 70.6909 61.282C71.1502 60.9423 71.7813 60.9423 72.2405 61.282C74.1875 62.7228 76.9858 62.7778 79.0094 61.282C79.4673 60.9423 80.0997 60.9423 80.5576 61.282C82.5422 62.7496 85.2506 62.7523 87.2379 61.282C87.6958 60.9423 88.3282 60.9423 88.7861 61.282C92.5728 64.0817 98.0177 61.2269 97.7572 56.4292C97.7209 55.7471 97.5665 55.1106 97.3208 54.5332Z" fill="#AFBC31"/>
        <path d="M67.1124 56.4292C67.1487 55.7471 67.3031 55.1106 67.5488 54.5332H53.9277C53.682 55.1106 53.5289 55.7471 53.4913 56.4292C53.2322 61.2269 58.6758 64.083 62.4624 61.282C62.9203 60.9423 63.5527 60.9423 64.012 61.282C65.7911 62.5979 68.149 62.7322 70.0504 61.6875C68.2645 60.7194 66.9835 58.8153 67.1124 56.4292Z" fill="#9FA519"/>
        <path d="M57.3789 76.0107L65.2435 83.8767C66.5796 85.2128 68.7683 85.2128 70.1044 83.8767L77.969 76.0107H57.3789Z" fill="#FAD964"/>
        <path d="M67.2698 84.8529C66.738 83.7236 66.4399 82.4641 66.4399 81.1334V77.9282C66.4399 76.8701 67.298 76.0107 68.3574 76.0107H57.3789L65.2435 83.8767C65.8088 84.442 66.5272 84.7656 67.2698 84.8529Z" fill="#FAB941"/>
        <path d="M81.8115 106.918H69.4365C66.8732 106.918 64.7959 104.841 64.7959 102.277C64.7959 99.714 66.8732 97.6367 69.4365 97.6367H81.8115C84.3749 97.6367 86.4521 99.714 86.4521 102.277C86.4521 104.841 84.3749 106.918 81.8115 106.918Z" fill="#AFBC31"/>
        <path d="M75.624 102.277C75.624 99.714 77.7013 97.6367 80.2646 97.6367H69.4365C66.8732 97.6367 64.7959 99.714 64.7959 102.277C64.7959 104.841 66.8732 106.918 69.4365 106.918H80.2646C77.7013 106.918 75.624 104.841 75.624 102.277Z" fill="#9FA519"/>
    </g>
    <defs>
        <clipPath id="clip0">
            <rect width="176" height="176" fill="white"/>
        </clipPath>
    </defs>
</svg>
