<svg width="250" height="50" viewBox="0 0 250 50" fill="none" xmlns="http://www.w3.org/2000/svg">
    <path d="M13.551 6.01462H2.76551C1.24448 6.01462 0 4.77014 0 3.24911C0 1.72808 1.24448 0.552734 2.76551 0.552734H30.2132C31.7342 0.552734 32.9096 1.72808 32.9096 3.24911C32.9096 4.77014 31.7342 6.01462 30.2132 6.01462H19.4277V46.5294C19.4277 48.1195 18.1141 49.5023 16.4548 49.5023C14.8646 49.5023 13.551 48.1195 13.551 46.5294V6.01462Z" fill="white"/>
    <path d="M28.8994 31.3196C28.8994 21.0872 36.7811 12.998 47.1518 12.998C52.1989 12.998 56.4163 14.9339 59.1126 17.4229C59.7349 17.976 60.1497 18.7365 60.1497 19.5661C60.1497 20.2575 59.9423 20.8798 59.2509 21.6403L46.9444 36.3666C46.3913 36.9889 45.769 37.2654 45.0085 37.2654C43.4875 37.2654 42.3813 36.2283 42.3813 34.7765C42.3813 34.1542 42.5196 33.532 43.0035 33.048L53.789 20.3267C51.9914 18.8056 49.4333 18.1142 47.1518 18.1142C40.0997 18.1142 34.4996 23.9218 34.4996 31.3196C34.4996 38.6482 40.0306 44.5249 47.1518 44.5249C51.0927 44.5249 54.2038 42.7964 56.3471 40.3766C57.1076 39.6852 57.7299 39.1321 58.6978 39.1321C60.288 39.1321 61.4633 40.2383 61.4633 41.7594C61.4633 42.3125 61.1176 43.073 60.6337 43.6261C57.7299 47.083 52.9594 49.6411 47.1518 49.6411C36.8503 49.6411 28.8994 41.552 28.8994 31.3196Z" fill="white"/>
    <path d="M69.0688 27.9318C69.0688 19.013 74.7381 12.998 83.3112 12.998C84.6939 12.998 85.8693 14.1043 85.8693 15.5561C85.8693 16.9389 84.6939 18.1142 83.3112 18.1142C78.195 18.1142 74.5999 21.502 74.5999 27.9318V46.6682C74.5999 48.2583 73.3554 49.5028 71.8344 49.5028C70.2442 49.5028 69.0688 48.2583 69.0688 46.6682V27.9318Z" fill="white"/>
    <path d="M90.6396 27.9318C90.6396 19.013 96.3089 12.998 104.882 12.998C106.265 12.998 107.44 14.1043 107.44 15.5561C107.44 16.9389 106.265 18.1142 104.882 18.1142C99.7658 18.1142 96.1707 21.502 96.1707 27.9318V46.6682C96.1707 48.2583 94.9262 49.5028 93.4052 49.5028C91.815 49.5028 90.6396 48.2583 90.6396 46.6682V27.9318Z" fill="white"/>
    <path d="M141.246 44.1101C137.997 47.5669 133.503 49.6411 128.317 49.6411C118.154 49.6411 110.411 41.552 110.411 31.3196C110.411 21.0872 118.154 12.998 128.317 12.998C133.503 12.998 137.997 15.1413 141.246 18.5291V15.9018C141.246 14.3808 142.491 13.1363 144.012 13.1363C145.602 13.1363 146.777 14.3808 146.777 15.9018V46.6682C146.777 48.2583 145.602 49.5028 144.012 49.5028C142.491 49.5028 141.246 48.2583 141.246 46.6682V44.1101ZM141.246 31.8727V30.7665C140.97 23.5761 135.508 18.1142 128.663 18.1142C121.611 18.1142 116.011 23.8527 116.011 31.3196C116.011 38.7864 121.611 44.5249 128.663 44.5249C135.508 44.5249 140.97 39.063 141.246 31.8727Z" fill="white"/>
    <path d="M185.425 44.1099C182.176 47.5668 177.682 49.6409 172.497 49.6409C162.333 49.6409 154.59 41.5518 154.59 31.3194C154.59 21.087 162.333 12.9979 172.497 12.9979C177.682 12.9979 182.176 15.1412 185.425 18.5289V2.76551C185.425 1.24448 186.67 0 188.191 0C189.781 0 190.956 1.24448 190.956 2.76551V46.668C190.956 48.2582 189.781 49.5027 188.191 49.5027C186.67 49.5027 185.425 48.2582 185.425 46.668V44.1099ZM185.425 31.8725V30.7663C185.149 23.576 179.687 18.1141 172.842 18.1141C165.79 18.1141 160.19 23.8525 160.19 31.3194C160.19 38.7863 165.79 44.5247 172.842 44.5247C179.687 44.5247 185.149 39.0629 185.425 31.8725Z" fill="white"/>
    <path d="M199.667 5.11607C199.667 3.18021 201.189 1.65918 203.124 1.65918C204.991 1.65918 206.581 3.18021 206.581 5.11607C206.581 6.98279 204.991 8.57296 203.124 8.57296C201.189 8.57296 199.667 6.98279 199.667 5.11607ZM200.359 15.9016C200.359 14.3805 201.534 13.1361 203.124 13.1361C204.645 13.1361 205.89 14.3805 205.89 15.9016V46.6679C205.89 48.258 204.645 49.5025 203.124 49.5025C201.534 49.5025 200.359 48.258 200.359 46.6679V15.9016Z" fill="white"/>
    <path d="M244.469 44.1101C241.22 47.5669 236.726 49.6411 231.54 49.6411C221.377 49.6411 213.634 41.552 213.634 31.3196C213.634 21.0872 221.377 12.998 231.54 12.998C236.726 12.998 241.22 15.1413 244.469 18.5291V15.9018C244.469 14.3808 245.714 13.1363 247.235 13.1363C248.825 13.1363 250 14.3808 250 15.9018V46.6682C250 48.2583 248.825 49.5028 247.235 49.5028C245.714 49.5028 244.469 48.2583 244.469 46.6682V44.1101ZM244.469 31.8727V30.7665C244.193 23.5761 238.731 18.1142 231.886 18.1142C224.834 18.1142 219.234 23.8527 219.234 31.3196C219.234 38.7864 224.834 44.5249 231.886 44.5249C238.731 44.5249 244.193 39.063 244.469 31.8727Z" fill="white"/>
</svg>
