<svg width="512" height="512" viewBox="0 0 512 512" fill="none" xmlns="http://www.w3.org/2000/svg">
    <path d="M49.548 190.548V487.225C49.548 500.908 60.64 512 74.323 512H437.678C451.36 512 462.452 500.908 462.452 487.226V198.194L49.548 190.548Z" fill="#FFE17D"/>
    <path d="M455.525 176.136L421.162 148.646H90.8389L56.476 176.136C52.098 179.639 49.549 184.941 49.549 190.549C49.549 195.444 51.494 200.139 54.955 203.6L256 404.645L457.046 203.599C460.507 200.138 462.452 195.443 462.452 190.548C462.452 184.941 459.903 179.638 455.525 176.136Z" fill="#FFD164"/>
    <path d="M90.839 239.484L209.416 358.061L300.312 360.334L421.162 239.484V8.258C421.162 3.697 417.465 0 412.904 0H99.097C94.536 0 90.839 3.697 90.839 8.258V239.484Z" fill="#EDEBED"/>
    <path d="M300.311 360.334L421.161 239.484V216.127L277.524 359.764L300.311 360.334Z" fill="#DBD9DC"/>
    <path d="M90.839 216.126V239.484L209.416 358.061L233.372 358.66L90.839 216.126Z" fill="#DBD9DC"/>
    <path d="M239.484 247.742H132.129C127.564 247.742 123.871 244.044 123.871 239.484C123.871 234.924 127.565 231.226 132.129 231.226H239.484C244.049 231.226 247.742 234.924 247.742 239.484C247.742 244.044 244.048 247.742 239.484 247.742Z" fill="#6F6571"/>
    <path d="M379.871 247.742H272.516C267.951 247.742 264.258 244.044 264.258 239.484C264.258 234.924 267.952 231.226 272.516 231.226H379.871C384.436 231.226 388.129 234.924 388.129 239.484C388.129 244.044 384.435 247.742 379.871 247.742Z" fill="#6F6571"/>
    <path d="M236.75 156.903H207.508V140.387H232.064C236.629 140.387 240.322 136.689 240.322 132.129C240.322 127.569 236.628 123.871 232.064 123.871H207.508V107.355H236.75C241.315 107.355 245.008 103.657 245.008 99.097C245.008 94.537 241.314 90.839 236.75 90.839H199.25C194.685 90.839 190.992 94.537 190.992 99.097V165.162C190.992 169.722 194.686 173.42 199.25 173.42H236.75C241.315 173.42 245.008 169.722 245.008 165.162C245.008 160.602 241.315 156.903 236.75 156.903Z" fill="#A5CDFF"/>
    <path d="M169.629 173.419C166.71 173.419 163.944 171.867 162.444 169.238L140.388 130.375V165.161C140.388 169.721 136.694 173.419 132.13 173.419C127.566 173.419 123.872 169.721 123.872 165.161V99.097C123.872 95.347 126.396 92.069 130.025 91.113C133.598 90.161 137.452 91.762 139.315 95.02L161.371 133.883V99.097C161.371 94.537 165.065 90.839 169.629 90.839C174.193 90.839 177.887 94.537 177.887 99.097V165.162C177.887 168.912 175.363 172.19 171.734 173.146C171.04 173.331 170.331 173.419 169.629 173.419Z" fill="#A5CDFF"/>
    <path d="M304.21 173.419C300.315 173.419 296.944 170.693 296.129 166.879L290.145 138.766L284.169 166.879C283.354 170.694 279.984 173.419 276.088 173.419C272.193 173.419 268.822 170.693 268.007 166.879L253.942 100.814C252.998 96.354 255.845 91.967 260.305 91.02C264.724 90.056 269.144 92.911 270.103 97.379L276.087 125.492L282.063 97.379C282.878 93.564 286.248 90.839 290.144 90.839C294.039 90.839 297.41 93.565 298.225 97.379L304.209 125.5L310.193 97.379C311.153 92.911 315.524 90.06 319.991 91.02C324.451 91.968 327.297 96.355 326.354 100.814L312.289 166.879C311.476 170.694 308.105 173.419 304.21 173.419Z" fill="#A5CDFF"/>
    <path d="M361.121 173.419C346.226 173.419 334.113 163.234 334.113 150.709C334.113 146.149 337.807 142.451 342.371 142.451C346.935 142.451 350.629 146.149 350.629 150.709C350.629 153.632 355.113 156.903 361.121 156.903C367.129 156.903 371.613 153.633 371.613 150.709C371.613 147.015 370.718 144.447 358.274 139.882C349.242 136.563 334.113 131.011 334.113 113.547C334.113 101.023 346.226 90.837 361.121 90.837C376.016 90.837 388.129 101.022 388.129 113.547C388.129 118.107 384.435 121.805 379.871 121.805C375.307 121.805 371.613 118.107 371.613 113.547C371.613 110.624 367.129 107.353 361.121 107.353C355.113 107.353 350.629 110.623 350.629 113.547C350.629 117.241 351.524 119.809 363.968 124.374C373 127.693 388.129 133.245 388.129 150.709C388.129 163.234 376.016 173.419 361.121 173.419Z" fill="#A5CDFF"/>
    <path d="M379.871 66.065H132.129C127.564 66.065 123.871 62.367 123.871 57.807C123.871 53.247 127.565 49.549 132.129 49.549H379.871C384.436 49.549 388.129 53.247 388.129 57.807C388.129 62.367 384.435 66.065 379.871 66.065Z" fill="#8CB4EB"/>
    <path d="M379.871 214.71H132.129C127.564 214.71 123.871 211.012 123.871 206.452C123.871 201.892 127.565 198.194 132.129 198.194H379.871C384.436 198.194 388.129 201.892 388.129 206.452C388.129 211.012 384.435 214.71 379.871 214.71Z" fill="#8CB4EB"/>
    <path d="M256 404.645L194.773 343.418L49.678 488.513C50.361 501.584 61.081 512 74.323 512H437.678C450.919 512 461.639 501.584 462.322 488.513L317.227 343.418L256 404.645Z" fill="#FFD164"/>
    <path d="M437.677 512C444.518 512 450.712 509.227 455.195 504.744L291.035 340.584C271.685 321.234 240.313 321.234 220.963 340.584L56.803 504.744C61.287 509.227 67.481 512 74.323 512H437.677Z" fill="#FFE17D"/>
    <path d="M247.742 272.516C247.742 267.956 244.048 264.258 239.484 264.258H132.129C127.564 264.258 123.871 267.956 123.871 272.516L132.129 280.774H239.484C244.048 280.774 247.742 277.077 247.742 272.516Z" fill="#6F6571"/>
    <path d="M379.871 264.258H272.516C267.951 264.258 264.258 267.956 264.258 272.516C264.258 277.076 267.952 280.774 272.516 280.774H379.871L388.129 272.516C388.129 267.956 384.435 264.258 379.871 264.258Z" fill="#6F6571"/>
    <path d="M363.355 297.29H272.516C267.951 297.29 264.258 300.988 264.258 305.548C264.258 310.108 267.952 313.806 272.516 313.806H346.839L363.355 297.29Z" fill="#6F6571"/>
    <path d="M239.484 297.29H148.645L165.161 313.806H239.484C244.049 313.806 247.742 310.108 247.742 305.548C247.742 300.988 244.048 297.29 239.484 297.29Z" fill="#6F6571"/>
</svg>