<svg width="1440" height="255" viewBox="0 0 1440 255" fill="none" xmlns="http://www.w3.org/2000/svg">
    <path d="M0 94.9996L30 73.6996C60 51.9996 120 9.99965 180 30.9996C240 51.9996 300 138 360 159C420 180 480 138 540 105.7C600 73.9996 660 51.9996 720 41.6996C780 30.9996 840 30.9997 900 20.2997C960 9.99965 1020 -12.0004 1080 9.69965C1140 30.9996 1200 94.9997 1260 116.3C1320 138 1380 116 1410 105.7L1440 94.9996V255H1410C1380 255 1320 255 1260 255C1200 255 1140 255 1080 255C1020 255 960 255 900 255C840 255 780 255 720 255C660 255 600 255 540 255C480 255 420 255 360 255C300 255 240 255 180 255C120 255 60 255 30 255H0V94.9996Z" fill="url(#paint0_linear)"/>
    <defs>
        <linearGradient id="paint0_linear" x1="1440" y1="255" x2="2.29027e-05" y2="255" gradientUnits="userSpaceOnUse">
            <stop stop-color="#8EDD3D"/>
            <stop offset="1" stop-color="#5DC14A"/>
        </linearGradient>
    </defs>
</svg>
